<?xml version="1.0" encoding="UTF-8"?>
<svg version="1.1" xmlns="http://www.w3.org/2000/svg" width="801" height="311">
<path d="M0 0 C3.17688097 0.52984447 5.77292126 1.7860972 8.61328125 3.265625 C9.52126465 3.73766357 10.42924805 4.20970215 11.36474609 4.69604492 C12.82388428 5.46525269 12.82388428 5.46525269 14.3125 6.25 C15.81804443 7.0395105 15.81804443 7.0395105 17.35400391 7.8449707 C48.05338542 24.05338542 48.05338542 24.05338542 51 27 C51.12263388 28.56448383 51.17779522 30.13432772 51.20532227 31.70336914 C51.2352401 33.20481224 51.2352401 33.20481224 51.26576233 34.73658752 C51.28247482 35.8251152 51.29918732 36.91364288 51.31640625 38.03515625 C51.33718735 39.14354355 51.35796844 40.25193085 51.37937927 41.39390564 C51.44499623 44.95003808 51.50381596 48.50624703 51.5625 52.0625 C51.60567368 54.46680493 51.64928758 56.87110199 51.69335938 59.27539062 C51.80068992 65.18351185 51.90243331 71.09170991 52 77 C64.37357276 70.89187005 64.37357276 70.89187005 76.5 64.3125 C83.62911275 60.30395974 90.80241701 56.38421191 98 52.5 C109.95567341 46.03949828 121.84599375 39.4711617 133.68359375 32.796875 C146.18669997 25.75637829 158.7520119 18.85947329 171.43505859 12.1496582 C177.37389139 8.99630718 183.19355921 5.75379619 188.88110352 2.1640625 C190.95357841 1.02550272 192.6664902 0.35738151 195 0 C196.61318504 1.61318504 196.12542336 3.35212984 196.12584114 5.5840292 C196.12844889 6.58103798 196.13105664 7.57804677 196.13374341 8.60526794 C196.13151268 9.71380207 196.12928196 10.82233621 196.12698364 11.96446228 C196.12854363 13.13180155 196.13010362 14.29914082 196.13171089 15.501854 C196.13502412 18.75659612 196.13381172 22.01130135 196.13072467 25.26604259 C196.12847238 28.77052887 196.13194934 32.27500997 196.13470459 35.77949524 C196.13916326 42.65082133 196.13818535 49.52213654 196.13529195 56.39346307 C196.13303811 61.97599434 196.13272531 67.55852255 196.13381577 73.14105415 C196.133969 73.93409453 196.13412223 74.72713491 196.13428011 75.54420682 C196.13459982 77.15501582 196.13492403 78.76582483 196.1352527 80.37663383 C196.13810782 95.49993214 196.13482006 110.6232244 196.12945233 125.74652172 C196.12498513 138.73490749 196.12575948 151.72328432 196.13037109 164.71166992 C196.13571777 179.77747084 196.13783222 194.84326644 196.13475883 209.90906817 C196.13444027 211.51442214 196.1341259 213.11977611 196.13381577 214.72513008 C196.13366149 215.51508921 196.13350721 216.30504833 196.13334826 217.11894561 C196.13248332 222.69698877 196.13394551 228.27502857 196.13629532 233.85307121 C196.13909459 240.64774202 196.13835239 247.44240126 196.13301457 254.23707073 C196.13037915 257.70661345 196.12936981 261.17613688 196.13266373 264.64567947 C196.1353752 268.39999058 196.13199407 272.15424653 196.12698364 275.90855408 C196.12921436 277.01485749 196.13144509 278.1211609 196.13374341 279.26098865 C196.13113566 280.26060519 196.12852791 281.26022172 196.12584114 282.29012966 C196.12567879 283.15762826 196.12551644 284.02512687 196.12534916 284.9189133 C196 287 196 287 195 289 C188.03996553 289.02526838 181.0799428 289.04283222 174.11987305 289.05493164 C171.75007688 289.05997341 169.38028385 289.06680665 167.01049805 289.07543945 C163.61245961 289.0875119 160.21446215 289.09322971 156.81640625 289.09765625 C155.74975235 289.10281754 154.68309845 289.10797882 153.5841217 289.11329651 C152.60318039 289.11337204 151.62223907 289.11344757 150.61157227 289.11352539 C149.74331314 289.115746 148.87505402 289.11796661 147.98048401 289.12025452 C146 289 146 289 145 288 C144.8897357 285.28181327 144.84503264 282.58848956 144.84178162 279.86936951 C144.83684364 279.00688553 144.83190566 278.14440156 144.82681805 277.25578171 C144.81136366 274.34296785 144.80306106 271.43017616 144.79467773 268.51733398 C144.78510544 266.43839317 144.77509575 264.35945433 144.76467896 262.28051758 C144.7375535 256.61754682 144.71658544 250.95456767 144.69667697 245.29156756 C144.67486437 239.38048428 144.64745264 233.46942711 144.62062073 227.55836487 C144.57062972 216.35634197 144.52571475 205.15430463 144.48259836 193.9522534 C144.43328063 181.20275784 144.3783423 168.45328846 144.32291877 155.7038182 C144.20900039 129.46923655 144.10218293 103.2346298 144 77 C139.93690543 79.15622247 135.87508418 81.31481979 131.81433105 83.47544861 C130.43819783 84.20725337 129.06174292 84.93845361 127.68493652 85.66899109 C119.20981807 90.16652446 110.80001191 94.74642013 102.5 99.5625 C95.96374075 103.34566257 89.40400743 106.84865189 82.609375 110.1484375 C77.17725786 112.86449607 71.97135308 116.00497998 66.74560547 119.09399414 C65.98650879 119.54121826 65.22741211 119.98844238 64.4453125 120.44921875 C63.44781982 121.04222778 63.44781982 121.04222778 62.43017578 121.6472168 C60.25980169 122.85537863 58.07131759 123.97791915 55.84811401 125.08454895 C55.12754255 125.4435922 54.40697109 125.80263544 53.66456413 126.17255878 C52.84060489 126.58214219 52.84060489 126.58214219 52 127 C51.99576806 127.82882911 51.99153612 128.65765821 51.98717594 129.51160336 C51.8840157 149.64895764 51.77540022 169.786276 51.66066074 189.92356777 C51.60530686 199.66167927 51.55182137 209.39979443 51.50268555 219.13793945 C51.45987016 227.62251795 51.41359896 236.10706922 51.36312145 244.59160572 C51.33649912 249.08697063 51.3116456 253.58233006 51.29092598 258.07772636 C51.27139257 262.30393692 51.24725888 266.53009557 51.21950912 270.75625992 C51.21012116 272.31194812 51.20245221 273.86764774 51.19658089 275.4233532 C51.18834919 277.53814727 51.17408118 279.65281436 51.15821838 281.76756287 C51.15176583 282.95391044 51.14531328 284.14025801 51.1386652 285.3625555 C51 288 51 288 50 289 C48.43452952 289.09326716 46.86487228 289.11745582 45.29663086 289.11352539 C44.29566879 289.11344986 43.29470673 289.11337433 42.26341248 289.11329651 C41.1748848 289.10813522 40.08635712 289.10297394 38.96484375 289.09765625 C37.85645645 289.0962413 36.74806915 289.09482635 35.60609436 289.09336853 C32.04986931 289.08775033 28.49370617 289.07519475 24.9375 289.0625 C22.53320403 289.05748734 20.12890708 289.05292403 17.72460938 289.04882812 C11.81638496 289.03777499 5.9081969 289.02101917 0 289 C-1.21607638 285.21373958 -1.13651636 281.46550961 -1.12025452 277.53363037 C-1.12153615 276.40144337 -1.12153615 276.40144337 -1.12284368 275.24638391 C-1.12449144 272.71598964 -1.11898862 270.1856616 -1.11352539 267.65527344 C-1.11324334 265.84189862 -1.1134016 264.02852368 -1.1139679 262.21514893 C-1.11425518 257.28991305 -1.10836959 252.36470147 -1.10139394 247.43947124 C-1.09514891 242.29316518 -1.09455569 237.14685858 -1.09336853 232.00054932 C-1.09025861 222.25420295 -1.08204978 212.50786778 -1.07201904 202.76152635 C-1.06084739 191.66612021 -1.0553448 180.57071354 -1.05032361 169.47530317 C-1.0398669 146.6501959 -1.02227401 123.82509858 -1 101 C2.71261597 99.88839722 2.71261597 99.88839722 5.29907227 100.89282227 C6.12979248 101.36260498 6.9605127 101.8323877 7.81640625 102.31640625 C8.74646484 102.83396484 9.67652344 103.35152344 10.63476562 103.88476562 C12.08399414 104.71524414 12.08399414 104.71524414 13.5625 105.5625 C14.97112305 106.35237305 14.97112305 106.35237305 16.40820312 107.15820312 C18.32022415 108.23035218 20.2298647 109.30675655 22.13720703 110.38720703 C26.73102933 112.97519868 31.36672906 115.48328395 36 118 C39.63 119.98 43.26 121.96 47 124 C47 109.81 47 95.62 47 81 C38.98519891 76.70543362 38.98519891 76.70543362 30.96777344 72.41577148 C24.44675551 68.91300353 18.01037588 65.30413121 11.64819336 61.52001953 C8.38940182 59.64952666 5.05254813 58.01172049 1.64453125 56.43359375 C-0.8711549 54.24058468 -0.62666572 52.31528033 -1 49 C-1.13863468 45.31587813 -1.14015829 41.635617 -1.1328125 37.94921875 C-1.13376923 36.89466995 -1.13472595 35.84012115 -1.13571167 34.75361633 C-1.13639018 32.53390442 -1.13455892 30.31419049 -1.13037109 28.09448242 C-1.12499146 24.68208425 -1.1303409 21.26981611 -1.13671875 17.85742188 C-1.13605843 15.70052054 -1.13477824 13.54361929 -1.1328125 11.38671875 C-1.13483673 10.36076096 -1.13686096 9.33480316 -1.13894653 8.27775574 C-1.13579437 7.33620132 -1.13264221 6.39464691 -1.12939453 5.42456055 C-1.12859894 4.59216354 -1.12780334 3.75976654 -1.12698364 2.90214539 C-1 1 -1 1 0 0 Z " fill="#4AA4B2" transform="translate(12,11)"/>
<path d="M0 0 C8.82064385 2.40563014 15.27663834 4.78575714 23.125 8.9375 C24.16398437 9.46279297 25.20296875 9.98808594 26.2734375 10.52929688 C27.25828125 11.04427734 28.243125 11.55925781 29.2578125 12.08984375 C30.1461377 12.55253662 31.03446289 13.01522949 31.94970703 13.49194336 C34 15 34 15 34.79638672 17.18188477 C34.8635791 17.78186279 34.93077148 18.38184082 35 19 C36.03125 19.2475 37.0625 19.495 38.125 19.75 C42.00862472 20.68206993 44.90449472 22.49160717 48 25 C48.73828697 28.00658798 48.73828697 28.00658798 48.7215271 31.59320068 C48.72665365 32.25407031 48.7317802 32.91493994 48.7370621 33.59583592 C48.74694236 35.80935136 48.71395996 38.02013482 48.68115234 40.23339844 C48.67945982 41.82017452 48.68041006 43.40695529 48.68380737 44.99372864 C48.68553032 49.30161671 48.6502328 53.60850429 48.60836363 57.91615963 C48.57087902 62.41778948 48.56733308 66.91944178 48.56021118 71.42120361 C48.54155559 79.94591518 48.4923091 88.47016557 48.43211424 96.99467397 C48.36507115 106.69947455 48.33206567 116.40429705 48.30194163 126.10927153 C48.23921037 146.07316234 48.12916909 166.03642087 48 186 C32.16 186 16.32 186 0 186 C0 124.62 0 63.24 0 0 Z " fill="#4AA3B1" transform="translate(13,113)"/>
<path d="M0 0 C4.24748602 0.11282385 7.09260148 0.33820695 10.1484375 3.39404297 C11.1907609 4.73724323 12.18909521 6.11537372 13.1484375 7.51904297 C14.39225451 9.06570238 15.64271265 10.60703575 16.8984375 12.14404297 C17.56488281 12.99353516 18.23132813 13.84302734 18.91796875 14.71826172 C22.23116483 18.87861477 25.69098851 22.90856453 29.14453125 26.95263672 C33.21602296 31.74976978 37.17338157 36.642033 41.1484375 41.51904297 C41.18602173 39.70932007 41.18602173 39.70932007 41.22436523 37.86303711 C41.31826273 33.40328636 41.41852583 28.94369784 41.52075195 24.48413086 C41.56416791 22.55090112 41.60583792 20.61763138 41.64575195 18.68432617 C41.70329381 15.91166095 41.7670337 13.1391984 41.83203125 10.36669922 C41.84874374 9.49690933 41.86545624 8.62711945 41.88267517 7.73097229 C42.03456579 1.63291468 42.03456579 1.63291468 43.1484375 0.51904297 C44.6371561 0.43234865 46.1298825 0.41200803 47.62109375 0.42138672 C48.52021484 0.42460938 49.41933594 0.42783203 50.34570312 0.43115234 C51.76399414 0.4437207 51.76399414 0.4437207 53.2109375 0.45654297 C54.6350293 0.46331055 54.6350293 0.46331055 56.08789062 0.47021484 C58.44146815 0.48204187 60.79492227 0.49852272 63.1484375 0.51904297 C64.32753631 4.05633939 64.28274181 6.87051484 64.29370117 10.60498047 C64.29705978 11.32236389 64.3004184 12.03974731 64.30387878 12.77886963 C64.31337918 15.15061167 64.31533128 17.52228308 64.31640625 19.89404297 C64.3196189 21.54166696 64.32298298 23.18929067 64.32649231 24.83691406 C64.33248089 28.29020855 64.33433243 31.74347802 64.33374023 35.19677734 C64.3336385 39.62554406 64.34730366 44.05415086 64.36451244 48.48287964 C64.37561937 51.88518005 64.37765986 55.28744161 64.37713051 58.6897583 C64.3783121 60.32286125 64.3827439 61.95596516 64.39046288 63.58905029 C64.4002387 65.87051685 64.39739467 68.15163352 64.39135742 70.43310547 C64.39278244 71.73199707 64.39420746 73.03088867 64.39567566 74.36914062 C64.1484375 77.51904297 64.1484375 77.51904297 62.1484375 80.51904297 C56.41074167 81.61327347 49.72796776 82.23188392 44.6953125 78.89013672 C42.62943057 76.54292534 40.8973183 74.11053229 39.1484375 71.51904297 C37.64297485 69.65237474 36.12166762 67.79839015 34.5859375 65.95654297 C33.8434375 65.03873047 33.1009375 64.12091797 32.3359375 63.17529297 C29.76850282 60.05769371 27.09225268 57.0541339 24.36328125 54.07763672 C23.1484375 52.51904297 23.1484375 52.51904297 23.1484375 50.51904297 C22.4884375 50.51904297 21.8284375 50.51904297 21.1484375 50.51904297 C16.1484375 45.16190011 16.1484375 45.16190011 16.1484375 41.51904297 C14.4984375 40.85904297 12.8484375 40.19904297 11.1484375 39.51904297 C11.15891113 40.68999512 11.16938477 41.86094727 11.18017578 43.06738281 C11.21631247 47.40215002 11.23931483 51.73690386 11.25830078 56.07177734 C11.26837284 57.94972979 11.28203112 59.8276665 11.29931641 61.70556641 C11.32351203 64.40124387 11.33490833 67.09671443 11.34375 69.79248047 C11.35407257 70.63523529 11.36439514 71.47799011 11.37503052 72.34628296 C11.37542894 74.40525544 11.27101338 76.46372231 11.1484375 78.51904297 C9.1484375 80.51904297 9.1484375 80.51904297 7.17724609 80.74609375 C5.9989624 80.7303833 5.9989624 80.7303833 4.796875 80.71435547 C3.52070313 80.7046875 3.52070313 80.7046875 2.21875 80.69482422 C0.88457031 80.6696875 0.88457031 80.6696875 -0.4765625 80.64404297 C-1.37375 80.63501953 -2.2709375 80.62599609 -3.1953125 80.61669922 C-5.41432836 80.59309267 -7.63281327 80.56016607 -9.8515625 80.51904297 C-11.34033784 77.54149229 -10.99024762 74.50389698 -10.98095703 71.23950195 C-10.98270935 70.48979126 -10.98446167 69.74008057 -10.98626709 68.96765137 C-10.99067729 66.48345644 -10.98775083 63.9993324 -10.984375 61.51513672 C-10.98504821 59.79403164 -10.98601837 58.07292665 -10.98727417 56.3518219 C-10.98874996 52.7429209 -10.98660014 49.13404462 -10.98193359 45.52514648 C-10.9762321 40.88881434 -10.97951872 36.25254002 -10.98550606 31.61620998 C-10.98911124 28.06215475 -10.98797336 24.50811333 -10.98537827 20.95405769 C-10.9847091 19.24394791 -10.98553707 17.5338369 -10.98785782 15.82372856 C-10.9903841 13.43884812 -10.98654432 11.05406277 -10.98095703 8.66918945 C-10.98298126 7.95591995 -10.98500549 7.24265045 -10.98709106 6.50776672 C-10.95292498 -1.32395498 -6.70104921 0.05731161 0 0 Z " fill="#FAFAFA" transform="translate(254.8515625,104.48095703125)"/>
<path d="M0 0 C3.17688097 0.52984447 5.77292126 1.7860972 8.61328125 3.265625 C9.52126465 3.73766357 10.42924805 4.20970215 11.36474609 4.69604492 C12.82388428 5.46525269 12.82388428 5.46525269 14.3125 6.25 C15.81804443 7.0395105 15.81804443 7.0395105 17.35400391 7.8449707 C48.05338542 24.05338542 48.05338542 24.05338542 51 27 C51.12263388 28.56448383 51.17779522 30.13432772 51.20532227 31.70336914 C51.2352401 33.20481224 51.2352401 33.20481224 51.26576233 34.73658752 C51.28247482 35.8251152 51.29918732 36.91364288 51.31640625 38.03515625 C51.33718735 39.14354355 51.35796844 40.25193085 51.37937927 41.39390564 C51.44499623 44.95003808 51.50381596 48.50624703 51.5625 52.0625 C51.60567368 54.46680493 51.64928758 56.87110199 51.69335938 59.27539062 C51.80068992 65.18351185 51.90243331 71.09170991 52 77 C54.475 76.505 54.475 76.505 57 76 C54.375 79.875 54.375 79.875 51 81 C50.67 95.52 50.34 110.04 50 125 C52.475 124.01 52.475 124.01 55 123 C56.99620166 122.32204472 58.99538701 121.65266469 61 121 C59.71502463 123.56995074 58.50087627 123.90434463 55.9375 125.125 C55.20402344 125.47820312 54.47054687 125.83140625 53.71484375 126.1953125 C53.14894531 126.46085937 52.58304688 126.72640625 52 127 C51.99576806 127.82882911 51.99153612 128.65765821 51.98717594 129.51160336 C51.8840157 149.64895764 51.77540022 169.786276 51.66066074 189.92356777 C51.60530686 199.66167927 51.55182137 209.39979443 51.50268555 219.13793945 C51.45987016 227.62251795 51.41359896 236.10706922 51.36312145 244.59160572 C51.33649912 249.08697063 51.3116456 253.58233006 51.29092598 258.07772636 C51.27139257 262.30393692 51.24725888 266.53009557 51.21950912 270.75625992 C51.21012116 272.31194812 51.20245221 273.86764774 51.19658089 275.4233532 C51.18834919 277.53814727 51.17408118 279.65281436 51.15821838 281.76756287 C51.15176583 282.95391044 51.14531328 284.14025801 51.1386652 285.3625555 C51 288 51 288 50 289 C48.43452952 289.09326716 46.86487228 289.11745582 45.29663086 289.11352539 C44.29566879 289.11344986 43.29470673 289.11337433 42.26341248 289.11329651 C41.1748848 289.10813522 40.08635712 289.10297394 38.96484375 289.09765625 C37.85645645 289.0962413 36.74806915 289.09482635 35.60609436 289.09336853 C32.04986931 289.08775033 28.49370617 289.07519475 24.9375 289.0625 C22.53320403 289.05748734 20.12890708 289.05292403 17.72460938 289.04882812 C11.81638496 289.03777499 5.9081969 289.02101917 0 289 C-1.21607638 285.21373958 -1.13651636 281.46550961 -1.12025452 277.53363037 C-1.12153615 276.40144337 -1.12153615 276.40144337 -1.12284368 275.24638391 C-1.12449144 272.71598964 -1.11898862 270.1856616 -1.11352539 267.65527344 C-1.11324334 265.84189862 -1.1134016 264.02852368 -1.1139679 262.21514893 C-1.11425518 257.28991305 -1.10836959 252.36470147 -1.10139394 247.43947124 C-1.09514891 242.29316518 -1.09455569 237.14685858 -1.09336853 232.00054932 C-1.09025861 222.25420295 -1.08204978 212.50786778 -1.07201904 202.76152635 C-1.06084739 191.66612021 -1.0553448 180.57071354 -1.05032361 169.47530317 C-1.0398669 146.6501959 -1.02227401 123.82509858 -1 101 C2.75976562 99.90283203 2.75976562 99.90283203 4.921875 100.77734375 C6.61458333 101.8515625 8.30729167 102.92578125 10 104 C9.01 104.495 9.01 104.495 8 105 C5.69 104.01 3.38 103.02 1 102 C1 163.38 1 224.76 1 288 C16.84 288 32.68 288 49 288 C48.67 234.87 48.34 181.74 48 127 C44.04 125.02 40.08 123.04 36 121 C36 120.34 36 119.68 36 119 C40.2231716 120.27677281 43.12024374 121.67214625 47 124 C47 109.81 47 95.62 47 81 C38.98519891 76.70543362 38.98519891 76.70543362 30.96777344 72.41577148 C24.44675551 68.91300353 18.01037588 65.30413121 11.64819336 61.52001953 C8.38940182 59.64952666 5.05254813 58.01172049 1.64453125 56.43359375 C-0.8711549 54.24058468 -0.62666572 52.31528033 -1 49 C-1.13863468 45.31587813 -1.14015829 41.635617 -1.1328125 37.94921875 C-1.13376923 36.89466995 -1.13472595 35.84012115 -1.13571167 34.75361633 C-1.13639018 32.53390442 -1.13455892 30.31419049 -1.13037109 28.09448242 C-1.12499146 24.68208425 -1.1303409 21.26981611 -1.13671875 17.85742188 C-1.13605843 15.70052054 -1.13477824 13.54361929 -1.1328125 11.38671875 C-1.13483673 10.36076096 -1.13686096 9.33480316 -1.13894653 8.27775574 C-1.13579437 7.33620132 -1.13264221 6.39464691 -1.12939453 5.42456055 C-1.12859894 4.59216354 -1.12780334 3.75976654 -1.12698364 2.90214539 C-1 1 -1 1 0 0 Z " fill="#4AA2B0" transform="translate(12,11)"/>
<path d="M0 0 C3.64534517 2.9711045 7.2037274 6.26662658 9.75 10.25 C9.75 11.24 9.75 12.23 9.75 13.25 C7.67426919 14.45284401 5.59116905 15.63705701 3.5 16.8125 C2.91347656 17.15474609 2.32695313 17.49699219 1.72265625 17.84960938 C-2.65351241 20.28354588 -2.65351241 20.28354588 -5.47265625 20.125 C-7.39687766 19.177691 -8.81839665 18.0907229 -10.4375 16.6875 C-14.06856157 13.96027411 -16.87929699 13.77730073 -21.33203125 13.9765625 C-23.33014251 14.15819698 -23.33014251 14.15819698 -25.25 15.25 C-25.25 17.23 -25.25 19.21 -25.25 21.25 C-20.52178398 23.75317319 -15.84472345 25.79993305 -10.8125 27.625 C-2.1106497 30.9284802 5.5615304 35.29200947 10.75 43.25 C13.20882272 48.9159828 13.28793474 54.3244279 11.75 60.25 C8.83636086 66.41948423 4.77634398 71.04850476 -1.25 74.25 C-1.848125 74.56839844 -2.44625 74.88679688 -3.0625 75.21484375 C-11.50868697 78.79457534 -22.85577584 78.71602608 -31.61328125 76.3359375 C-40.00630867 72.73726738 -46.50688887 67.67200005 -50.25 59.25 C-50.140625 57.20703125 -50.140625 57.20703125 -49.25 55.25 C-47.140625 53.80078125 -47.140625 53.80078125 -44.5 52.5625 C-43.63890625 52.14613281 -42.7778125 51.72976562 -41.890625 51.30078125 C-39.33622875 50.28431292 -36.95715152 49.69307696 -34.25 49.25 C-33.54875 50.178125 -32.8475 51.10625 -32.125 52.0625 C-28.88384397 55.88146658 -25.86074385 57.95629132 -20.75 58.53125 C-15.79677869 58.88324385 -15.79677869 58.88324385 -11.453125 56.91015625 C-9.9699107 55.19511832 -9.9699107 55.19511832 -10.1875 52.3125 C-11.62142085 48.17943401 -13.49603169 47.41308336 -17.25 45.25 C-19.6227181 44.42980115 -22.02150974 43.68228176 -24.4375 43 C-32.78851634 40.42236021 -40.95059289 36.36559418 -45.875 28.8125 C-48.51651945 21.96856323 -49.00154751 16.3072037 -46.3203125 9.38671875 C-42.55887886 1.87757933 -37.03578031 -1.74502663 -29.27734375 -4.43359375 C-19.15826867 -7.35062335 -8.67678126 -6.1811737 0 0 Z " fill="#F5F5F5" transform="translate(544.25,108.75)"/>
<path d="M0 0 C0 -0.66 0 -1.32 0 -2 C3.15849685 -3.57924842 6.5365128 -3.14316514 10 -3.125 C11.10601563 -3.13080078 11.10601563 -3.13080078 12.234375 -3.13671875 C17.7466804 -3.1266598 17.7466804 -3.1266598 20 -2 C20.02312821 5.67536627 20.04091753 13.35072896 20.05181217 21.02612209 C20.05703995 24.58977422 20.06413569 28.15340257 20.07543945 31.71704102 C20.08834176 35.81006097 20.09322906 39.9030558 20.09765625 43.99609375 C20.10281754 45.28148544 20.10797882 46.56687714 20.11329651 47.89122009 C20.11337204 49.07236893 20.11344757 50.25351776 20.11352539 51.47045898 C20.115746 52.51636703 20.11796661 53.56227509 20.12025452 54.63987732 C20 57 20 57 19 58 C17.58429877 58.08651611 16.164405 58.10704904 14.74609375 58.09765625 C13.89208984 58.09443359 13.03808594 58.09121094 12.15820312 58.08789062 C11.26037109 58.07951172 10.36253906 58.07113281 9.4375 58.0625 C8.53580078 58.05798828 7.63410156 58.05347656 6.70507812 58.04882812 C4.46998686 58.03700225 2.23502563 58.0205222 0 58 C0 57.01 0 56.02 0 55 C-0.59425781 55.28875 -1.18851563 55.5775 -1.80078125 55.875 C-9.44313195 59.29801244 -15.96860833 60.48167549 -24.1171875 58.08203125 C-34.01372773 54.2690251 -39.53375211 49.97791769 -44.0546875 40.3671875 C-47.23880042 32.39374771 -47.15402481 23.08472557 -44.03125 15.08984375 C-39.93349866 6.78568857 -33.73925196 1.30356277 -25.1484375 -2.14453125 C-16.67299449 -4.44741217 -7.87791342 -3.78139844 0 0 Z M-24 20 C-25.85257006 24.44450664 -26.13893176 28.05835139 -25.4375 32.8125 C-23.80651835 36.42902453 -22.3251806 37.89134889 -19 40 C-14.92814056 41.35728648 -11.25316911 41.6593499 -7 41 C-3.42477964 39.08285285 -1.30283884 36.90851653 0 33 C0.40359636 28.42073361 0.56596308 24.33001323 -1.25 20.0625 C-3.75240488 17.11323711 -5.70063694 15.23553409 -9.5859375 14.53125 C-16.19277847 14.45722377 -19.77639622 14.6934209 -24 20 Z " fill="#FAFAFA" transform="translate(656,127)"/>
<path d="M0 0 C1.58669495 -0.00472824 1.58669495 -0.00472824 3.20544434 -0.009552 C4.93196228 -0.00651566 4.93196228 -0.00651566 6.69335938 -0.00341797 C8.45226501 -0.00485306 8.45226501 -0.00485306 10.2467041 -0.00631714 C12.73169 -0.00699917 15.21667766 -0.00514331 17.70166016 -0.00097656 C21.52054825 0.00437134 25.33931872 -0.00092083 29.15820312 -0.00732422 C31.56575547 -0.00666344 33.97330774 -0.00538229 36.38085938 -0.00341797 C38.10737732 -0.00645432 38.10737732 -0.00645432 39.86877441 -0.009552 C40.92657104 -0.00639984 41.98436768 -0.00324768 43.07421875 0 C44.47867249 0.00119339 44.47867249 0.00119339 45.91149902 0.00241089 C48.03710938 0.12939453 48.03710938 0.12939453 49.03710938 1.12939453 C49.19028929 3.78942264 49.26870812 6.40561333 49.28710938 9.06689453 C49.30773437 9.80875 49.32835937 10.55060547 49.34960938 11.31494141 C49.36523438 13.46923828 49.36523438 13.46923828 49.03710938 17.12939453 C45.4040488 19.55143492 43.71891915 19.36242344 39.40039062 19.32470703 C38.10166016 19.31826172 36.80292969 19.31181641 35.46484375 19.30517578 C34.0930963 19.28846514 32.72135151 19.27153524 31.34960938 19.25439453 C29.96615219 19.24436127 28.5826881 19.23523602 27.19921875 19.22705078 C23.81167485 19.2034442 20.42447866 19.1705149 17.03710938 19.12939453 C16.70710938 23.08939453 16.37710937 27.04939453 16.03710938 31.12939453 C17.81859375 31.03400391 19.60007812 30.93861328 21.43554688 30.84033203 C23.76104141 30.7278081 26.0865638 30.61585859 28.41210938 30.50439453 C29.58773437 30.43994141 30.76335937 30.37548828 31.97460938 30.30908203 C33.65683594 30.23173828 33.65683594 30.23173828 35.37304688 30.15283203 C36.92838135 30.07427979 36.92838135 30.07427979 38.51513672 29.99414062 C41.03710938 30.12939453 41.03710938 30.12939453 43.03710938 32.12939453 C43.18208922 34.71003582 43.22388483 37.17883337 43.16210938 39.75439453 C43.15308594 40.46080078 43.1440625 41.16720703 43.13476562 41.89501953 C43.11118541 43.63995551 43.07531398 45.38471748 43.03710938 47.12939453 C39.44274944 48.76654193 36.6773447 49.37080079 32.73632812 49.32470703 C31.41507935 49.31721436 31.41507935 49.31721436 30.06713867 49.30957031 C28.41258667 49.2822583 28.41258667 49.2822583 26.72460938 49.25439453 C23.19773437 49.21314453 19.67085938 49.17189453 16.03710938 49.12939453 C16.03710938 59.02939453 16.03710938 68.92939453 16.03710938 79.12939453 C13.70547101 80.29521371 12.31557456 80.25845063 9.72070312 80.26220703 C8.45129883 80.26414063 8.45129883 80.26414063 7.15625 80.26611328 C6.27130859 80.26224609 5.38636719 80.25837891 4.47460938 80.25439453 C3.58580078 80.25826172 2.69699219 80.26212891 1.78125 80.26611328 C0.93626953 80.26482422 0.09128906 80.26353516 -0.77929688 80.26220703 C-1.94634155 80.26051514 -1.94634155 80.26051514 -3.13696289 80.25878906 C-4.96289062 80.12939453 -4.96289062 80.12939453 -5.96289062 79.12939453 C-6.06318919 76.70082418 -6.09907487 74.3006784 -6.09228516 71.87158203 C-6.09403748 71.11226379 -6.09578979 70.35294556 -6.09759521 69.57061768 C-6.10201392 67.04852037 -6.09907568 64.52649261 -6.09570312 62.00439453 C-6.09637616 60.25943997 -6.09734618 58.51448549 -6.09860229 56.76953125 C-6.10007929 53.10757558 -6.09792465 49.44564425 -6.09326172 45.78369141 C-6.08756443 41.07894961 -6.09084342 36.37426485 -6.09683418 31.66952515 C-6.10043974 28.06485562 -6.09930123 24.46019971 -6.09670639 20.85552979 C-6.09603711 19.12030023 -6.09686559 17.38506945 -6.09918594 15.64984131 C-6.10171239 13.22892966 -6.09787201 10.80811167 -6.09228516 8.38720703 C-6.09430939 7.66301575 -6.09633362 6.93882446 -6.09841919 6.19268799 C-6.07327101 0.34016754 -5.76800058 0.00490118 0 0 Z " fill="#FCFCFC" transform="translate(335.962890625,104.87060546875)"/>
<path d="M0 0 C1.17792114 -0.00315216 2.35584229 -0.00630432 3.56945801 -0.009552 C4.85171265 -0.00752777 6.13396729 -0.00550354 7.45507812 -0.00341797 C8.76085815 -0.00437469 10.06663818 -0.00533142 11.4119873 -0.00631714 C14.17945535 -0.0077938 16.94689116 -0.00564058 19.71435547 -0.00097656 C23.26895462 0.00472073 26.82347827 0.00144155 30.37807465 -0.00454903 C33.75791526 -0.00902294 37.13773536 -0.00589433 40.51757812 -0.00341797 C41.79983276 -0.0054422 43.0820874 -0.00746643 44.40319824 -0.009552 C46.17007996 -0.00482376 46.17007996 -0.00482376 47.97265625 0 C49.0155481 0.00079559 50.05843994 0.00159119 51.13293457 0.00241089 C53.48632812 0.12939453 53.48632812 0.12939453 54.48632812 1.12939453 C54.55957981 3.9920702 54.57871018 6.83011353 54.54882812 9.69189453 C54.54431641 10.49820313 54.53980469 11.30451172 54.53515625 12.13525391 C54.5233333 14.13333209 54.50539727 16.13137236 54.48632812 18.12939453 C51.176381 19.7843681 47.49509812 19.23023788 43.86132812 19.19189453 C43.05953125 19.18738281 42.25773437 19.18287109 41.43164062 19.17822266 C39.44983806 19.16642621 37.46807379 19.14849058 35.48632812 19.12939453 C35.49076935 19.84936111 35.49521057 20.5693277 35.49978638 21.31111145 C35.53985135 28.09429785 35.57030656 34.87746658 35.58995247 41.66074085 C35.60039216 45.14814614 35.61455462 48.6354537 35.63720703 52.12280273 C35.66308325 56.13151999 35.67279936 60.1401345 35.68164062 64.14892578 C35.6919632 65.40212112 35.70228577 66.65531647 35.71292114 67.94648743 C35.71314774 69.68795296 35.71314774 69.68795296 35.71337891 71.46459961 C35.71782013 72.48830154 35.72226135 73.51200348 35.72683716 74.56672668 C35.48632812 77.12939453 35.48632812 77.12939453 33.48632812 80.12939453 C31.51513672 80.4699707 31.51513672 80.4699707 29.13476562 80.42236328 C28.28398437 80.41269531 27.43320312 80.40302734 26.55664062 80.39306641 C25.6671875 80.36792969 24.77773438 80.34279297 23.86132812 80.31689453 C22.96414063 80.30335938 22.06695312 80.28982422 21.14257812 80.27587891 C18.92323023 80.24046378 16.70507624 80.19107915 14.48632812 80.12939453 C13.15679021 77.47031869 13.36646781 75.46374085 13.37280273 72.48632812 C13.37287827 71.30525482 13.3729538 70.12418152 13.37303162 68.90731812 C13.3781929 67.62708771 13.38335419 66.3468573 13.38867188 65.02783203 C13.39008682 63.72109528 13.39150177 62.41435852 13.39295959 61.06802368 C13.39677918 57.59263195 13.4066047 54.11728197 13.41766357 50.64190674 C13.4278897 47.09607508 13.43245979 43.55023668 13.4375 40.00439453 C13.44822746 33.04604404 13.4652972 26.08772129 13.48632812 19.12939453 C12.21015625 19.15259766 10.93398438 19.17580078 9.61914062 19.19970703 C7.94987563 19.21846282 6.28060432 19.23666322 4.61132812 19.25439453 C3.34869141 19.27953125 3.34869141 19.27953125 2.06054688 19.30517578 C0.85205078 19.31484375 0.85205078 19.31484375 -0.38085938 19.32470703 C-1.1244873 19.33518066 -1.86811523 19.3456543 -2.63427734 19.35644531 C-4.51367188 19.12939453 -4.51367188 19.12939453 -6.51367188 17.12939453 C-6.68538091 14.4024223 -6.74612867 11.79032985 -6.70117188 9.06689453 C-6.70052734 8.32117188 -6.69988281 7.57544922 -6.69921875 6.80712891 C-6.64583045 0.27596062 -6.40472315 0.00488599 0 0 Z " fill="#FEFEFE" transform="translate(397.513671875,104.87060546875)"/>
<path d="M0 0 C3.14588944 -0.02683697 6.29155271 -0.04675902 9.4375 -0.0625 C10.33533203 -0.07087891 11.23316406 -0.07925781 12.15820312 -0.08789062 C13.01220703 -0.09111328 13.86621094 -0.09433594 14.74609375 -0.09765625 C15.93223267 -0.10551147 15.93223267 -0.10551147 17.14233398 -0.11352539 C19 0 19 0 20 1 C20.07258946 3.18639453 20.08373783 5.37500389 20.0625 7.5625 C20.05347656 8.76003906 20.04445313 9.95757812 20.03515625 11.19140625 C20.02355469 12.11824219 20.01195312 13.04507813 20 14 C20.58523438 13.83757812 21.17046875 13.67515625 21.7734375 13.5078125 C25.51152504 12.65526622 29.51826084 12.25913042 33 14 C33.44921875 17.08984375 33.44921875 17.08984375 33.6875 20.9375 C33.77386719 22.20464844 33.86023438 23.47179687 33.94921875 24.77734375 C34 28 34 28 33 30 C29 31 29 31 20 31 C20.33 38.92 20.66 46.84 21 55 C25.76302634 56.12257258 25.76302634 56.12257258 29.75 56 C30.8225 56 31.895 56 33 56 C34.93740653 57.93740653 34.2625055 61.30159872 34.3125 63.875 C34.36857422 65.75832031 34.36857422 65.75832031 34.42578125 67.6796875 C34 71 34 71 32.3984375 72.890625 C26.10014966 75.80383957 17.63935349 75.83232583 11 74 C6.52441198 72.14975691 3.23008417 69.31393331 1 65 C-1.57786283 57.5743229 -1.05321285 50.17530621 -0.625 42.4375 C-0.56828125 41.23802734 -0.5115625 40.03855469 -0.453125 38.80273438 C-0.31280871 35.86778526 -0.16151952 32.93384565 0 30 C-2.64 30 -5.28 30 -8 30 C-8 24.72 -8 19.44 -8 14 C-4.535 13.505 -4.535 13.505 -1 13 C-0.67 8.71 -0.34 4.42 0 0 Z " fill="#F1F1F1" transform="translate(571,111)"/>
<path d="M0 0 C1.0209375 -0.01160156 1.0209375 -0.01160156 2.0625 -0.0234375 C7.12155878 -0.00344122 7.12155878 -0.00344122 9.375 2.25 C9.77547444 4.57275177 10.1147104 6.90739357 10.375 9.25 C10.82875 8.59 11.2825 7.93 11.75 7.25 C12.28625 6.59 12.8225 5.93 13.375 5.25 C14.035 5.25 14.695 5.25 15.375 5.25 C15.375 4.59 15.375 3.93 15.375 3.25 C21.35527459 0.06052022 26.6366421 -0.35621905 33.375 0.25 C34.375 1.25 34.375 1.25 34.47265625 5.06640625 C34.46598089 6.64846682 34.45401875 8.23051159 34.4375 9.8125 C34.43298828 10.61880859 34.42847656 11.42511719 34.42382812 12.25585938 C34.41200518 14.25393756 34.39406914 16.25197783 34.375 18.25 C32.375 19.25 32.375 19.25 29.6015625 19.1796875 C23.9437723 19.30298075 17.85761582 21.76738418 13.8125 25.8125 C10.8768204 30.12967589 10.23934284 34.06169647 10.09375 39.16015625 C10.05636719 40.31451172 10.01898437 41.46886719 9.98046875 42.65820312 C9.9100436 45.09830404 9.83973146 47.53840823 9.76953125 49.97851562 C9.73214844 51.13158203 9.69476562 52.28464844 9.65625 53.47265625 C9.61081055 55.06219116 9.61081055 55.06219116 9.56445312 56.68383789 C9.375 59.25 9.375 59.25 8.375 61.25 C5.22918577 61.27888514 2.08340531 61.29675923 -1.0625 61.3125 C-1.96033203 61.32087891 -2.85816406 61.32925781 -3.78320312 61.33789062 C-5.06420898 61.34272461 -5.06420898 61.34272461 -6.37109375 61.34765625 C-7.16185303 61.35289307 -7.9526123 61.35812988 -8.76733398 61.36352539 C-10.625 61.25 -10.625 61.25 -11.625 60.25 C-11.71876053 58.43944975 -11.7424411 56.62522799 -11.73852539 54.81225586 C-11.73844986 53.65112778 -11.73837433 52.48999969 -11.73829651 51.29368591 C-11.73313522 50.030168 -11.72797394 48.76665009 -11.72265625 47.46484375 C-11.7212413 46.17888809 -11.71982635 44.89293243 -11.71836853 43.56800842 C-11.71454418 40.14356557 -11.70471462 36.71916491 -11.69366455 33.29473877 C-11.68344864 29.80261811 -11.67887053 26.31049066 -11.67382812 22.81835938 C-11.66309227 15.96222222 -11.64601684 9.10611313 -11.625 2.25 C-7.73422991 0.09428859 -4.37213451 -0.05025442 0 0 Z " fill="#F5F5F5" transform="translate(697.625,123.75)"/>
<path d="M0 0 C2.125 0.375 2.125 0.375 4 1 C4.02286878 37.40066473 4.04049946 73.80132821 4.05106533 110.20199864 C4.0523161 114.49550562 4.05361041 118.78901258 4.05493164 123.08251953 C4.05519395 123.93731074 4.05545626 124.79210194 4.05572652 125.67279591 C4.0600826 139.52921317 4.06796981 153.38562629 4.0771528 167.2420411 C4.08649105 181.45082642 4.09205598 195.65960957 4.09408849 209.86839783 C4.09546336 218.64209136 4.09981202 227.41577322 4.10791647 236.18946315 C4.11318604 242.19882926 4.11480381 248.20818929 4.11350138 254.21755753 C4.11285833 257.68912012 4.11387178 261.16066224 4.11920547 264.63222122 C4.12414103 268.38877245 4.12299877 272.14527268 4.12025452 275.90182495 C4.12316736 277.00881048 4.1260802 278.11579601 4.12908131 279.25632656 C4.12709026 280.25655979 4.12509921 281.25679302 4.12304783 282.28733635 C4.12342755 283.15537702 4.12380727 284.0234177 4.1241985 284.91776264 C4 287 4 287 3 289 C-3.96003447 289.02526838 -10.9200572 289.04283222 -17.88012695 289.05493164 C-20.24992312 289.05997341 -22.61971615 289.06680665 -24.98950195 289.07543945 C-28.38754039 289.0875119 -31.78553785 289.09322971 -35.18359375 289.09765625 C-36.25024765 289.10281754 -37.31690155 289.10797882 -38.4158783 289.11329651 C-39.39681961 289.11337204 -40.37776093 289.11344757 -41.38842773 289.11352539 C-42.25668686 289.115746 -43.12494598 289.11796661 -44.01951599 289.12025452 C-46 289 -46 289 -47 288 C-47.1102643 285.28181327 -47.15496736 282.58848956 -47.15821838 279.86936951 C-47.16562535 278.57564355 -47.16562535 278.57564355 -47.17318195 277.25578171 C-47.18863634 274.34296785 -47.19693894 271.43017616 -47.20532227 268.51733398 C-47.21489456 266.43839317 -47.22490425 264.35945433 -47.23532104 262.28051758 C-47.2624465 256.61754682 -47.28341456 250.95456767 -47.30332303 245.29156756 C-47.32513563 239.38048428 -47.35254736 233.46942711 -47.37937927 227.55836487 C-47.42937028 216.35634197 -47.47428525 205.15430463 -47.51740164 193.9522534 C-47.56671937 181.20275784 -47.6216577 168.45328846 -47.67708123 155.7038182 C-47.79099961 129.46923655 -47.89781707 103.2346298 -48 77 C-49.05960938 77.58910156 -50.11921875 78.17820312 -51.2109375 78.78515625 C-52.59872867 79.54469061 -53.98676213 80.3037824 -55.375 81.0625 C-56.07367188 81.45244141 -56.77234375 81.84238281 -57.4921875 82.24414062 C-59.29610184 83.22415178 -61.14583482 84.11875071 -63 85 C-63.66 84.67 -64.32 84.34 -65 84 C-51.85714286 74 -51.85714286 74 -45 74 C-45 144.62 -45 215.24 -45 288 C-29.49 288 -13.98 288 2 288 C1.67 193.95 1.34 99.9 1 3 C0.01 2.67 -0.98 2.34 -2 2 C-1.34 1.34 -0.68 0.68 0 0 Z " fill="#2A474C" transform="translate(204,11)"/>
<path d="M0 0 C0.66 0.33 1.32 0.66 2 1 C2.33 17.5 2.66 34 3 51 C5.475 50.505 5.475 50.505 8 50 C5.375 53.875 5.375 53.875 2 55 C1.67 69.52 1.34 84.04 1 99 C3.475 98.01 3.475 98.01 6 97 C7.99620166 96.32204472 9.99538701 95.65266469 12 95 C10.71502463 97.56995074 9.50087627 97.90434463 6.9375 99.125 C6.20402344 99.47820312 5.47054687 99.83140625 4.71484375 100.1953125 C4.14894531 100.46085937 3.58304688 100.72640625 3 101 C2.99576806 101.82882911 2.99153612 102.65765821 2.98717594 103.51160336 C2.8840157 123.64895764 2.77540022 143.786276 2.66066074 163.92356777 C2.60530686 173.66167927 2.55182137 183.39979443 2.50268555 193.13793945 C2.45987016 201.62251795 2.41359896 210.10706922 2.36312145 218.59160572 C2.33649912 223.08697063 2.3116456 227.58233006 2.29092598 232.07772636 C2.27139257 236.30393692 2.24725888 240.53009557 2.21950912 244.75625992 C2.21012116 246.31194812 2.20245221 247.86764774 2.19658089 249.4233532 C2.18834919 251.53814727 2.17408118 253.65281436 2.15821838 255.76756287 C2.15176583 256.95391044 2.14531328 258.14025801 2.1386652 259.3625555 C2 262 2 262 1 263 C-0.56547048 263.09326716 -2.13512772 263.11745582 -3.70336914 263.11352539 C-4.70433121 263.11344986 -5.70529327 263.11337433 -6.73658752 263.11329651 C-7.8251152 263.10813522 -8.91364288 263.10297394 -10.03515625 263.09765625 C-11.14354355 263.0962413 -12.25193085 263.09482635 -13.39390564 263.09336853 C-16.95013069 263.08775033 -20.50629383 263.07519475 -24.0625 263.0625 C-26.46679597 263.05748734 -28.87109292 263.05292403 -31.27539062 263.04882812 C-37.18361504 263.03777499 -43.0918031 263.02101917 -49 263 C-50.21607638 259.21373958 -50.13651636 255.46550961 -50.12025452 251.53363037 C-50.12153615 250.40144337 -50.12153615 250.40144337 -50.12284368 249.24638391 C-50.12449144 246.71598964 -50.11898862 244.1856616 -50.11352539 241.65527344 C-50.11324334 239.84189862 -50.1134016 238.02852368 -50.1139679 236.21514893 C-50.11425518 231.28991305 -50.10836959 226.36470147 -50.10139394 221.43947124 C-50.09514891 216.29316518 -50.09455569 211.14685858 -50.09336853 206.00054932 C-50.09025861 196.25420295 -50.08204978 186.50786778 -50.07201904 176.76152635 C-50.06084739 165.66612021 -50.0553448 154.57071354 -50.05032361 143.47530317 C-50.0398669 120.6501959 -50.02227401 97.82509858 -50 75 C-46.24023438 73.90283203 -46.24023438 73.90283203 -44.078125 74.77734375 C-42.38541667 75.8515625 -40.69270833 76.92578125 -39 78 C-39.99 78.495 -39.99 78.495 -41 79 C-43.31 78.01 -45.62 77.02 -48 76 C-48 137.38 -48 198.76 -48 262 C-32.16 262 -16.32 262 0 262 C-0.33 208.87 -0.66 155.74 -1 101 C-4.96 99.02 -8.92 97.04 -13 95 C-13 94.34 -13 93.68 -13 93 C-8.7768284 94.27677281 -5.87975626 95.67214625 -2 98 C-2 83.81 -2 69.62 -2 55 C-10.50829901 50.47644395 -10.50829901 50.47644395 -19.02319336 45.96533203 C-20.07643799 45.40185059 -21.12968262 44.83836914 -22.21484375 44.2578125 C-23.29886475 43.6817627 -24.38288574 43.10571289 -25.49975586 42.51220703 C-28 41 -28 41 -29 39 C-23.16826206 40.40953029 -18.30888727 42.7478039 -13.0625 45.625 C-12.28326172 46.04523438 -11.50402344 46.46546875 -10.70117188 46.8984375 C-8.79747888 47.92619814 -6.89826719 48.96225213 -5 50 C-5 50.66 -5 51.32 -5 52 C-3.35 52.33 -1.7 52.66 0 53 C0 35.51 0 18.02 0 0 Z " fill="#263E41" transform="translate(61,37)"/>
<path d="M0 0 C1.17792114 -0.00315216 2.35584229 -0.00630432 3.56945801 -0.009552 C4.85171265 -0.00752777 6.13396729 -0.00550354 7.45507812 -0.00341797 C8.76085815 -0.00437469 10.06663818 -0.00533142 11.4119873 -0.00631714 C14.17945535 -0.0077938 16.94689116 -0.00564058 19.71435547 -0.00097656 C23.26895462 0.00472073 26.82347827 0.00144155 30.37807465 -0.00454903 C33.75791526 -0.00902294 37.13773536 -0.00589433 40.51757812 -0.00341797 C41.79983276 -0.0054422 43.0820874 -0.00746643 44.40319824 -0.009552 C46.17007996 -0.00482376 46.17007996 -0.00482376 47.97265625 0 C49.0155481 0.00079559 50.05843994 0.00159119 51.13293457 0.00241089 C53.48632812 0.12939453 53.48632812 0.12939453 54.48632812 1.12939453 C54.55957981 3.9920702 54.57871018 6.83011353 54.54882812 9.69189453 C54.54431641 10.49820313 54.53980469 11.30451172 54.53515625 12.13525391 C54.5233333 14.13333209 54.50539727 16.13137236 54.48632812 18.12939453 C51.176381 19.7843681 47.49509812 19.23023788 43.86132812 19.19189453 C43.05953125 19.18738281 42.25773437 19.18287109 41.43164062 19.17822266 C39.44983806 19.16642621 37.46807379 19.14849058 35.48632812 19.12939453 C35.49076935 19.84936111 35.49521057 20.5693277 35.49978638 21.31111145 C35.53985135 28.09429785 35.57030656 34.87746658 35.58995247 41.66074085 C35.60039216 45.14814614 35.61455462 48.6354537 35.63720703 52.12280273 C35.66308325 56.13151999 35.67279936 60.1401345 35.68164062 64.14892578 C35.6919632 65.40212112 35.70228577 66.65531647 35.71292114 67.94648743 C35.71314774 69.68795296 35.71314774 69.68795296 35.71337891 71.46459961 C35.71782013 72.48830154 35.72226135 73.51200348 35.72683716 74.56672668 C35.48632812 77.12939453 35.48632812 77.12939453 33.48632812 80.12939453 C31.51513672 80.4699707 31.51513672 80.4699707 29.13476562 80.42236328 C28.28398437 80.41269531 27.43320312 80.40302734 26.55664062 80.39306641 C25.6671875 80.36792969 24.77773438 80.34279297 23.86132812 80.31689453 C22.96414063 80.30335938 22.06695312 80.28982422 21.14257812 80.27587891 C18.92323023 80.24046378 16.70507624 80.19107915 14.48632812 80.12939453 C13.15679021 77.47031869 13.36646781 75.46374085 13.37280273 72.48632812 C13.37287827 71.30525482 13.3729538 70.12418152 13.37303162 68.90731812 C13.3781929 67.62708771 13.38335419 66.3468573 13.38867188 65.02783203 C13.39008682 63.72109528 13.39150177 62.41435852 13.39295959 61.06802368 C13.39677918 57.59263195 13.4066047 54.11728197 13.41766357 50.64190674 C13.4278897 47.09607508 13.43245979 43.55023668 13.4375 40.00439453 C13.44822746 33.04604404 13.4652972 26.08772129 13.48632812 19.12939453 C12.21015625 19.15259766 10.93398438 19.17580078 9.61914062 19.19970703 C7.94987563 19.21846282 6.28060432 19.23666322 4.61132812 19.25439453 C3.34869141 19.27953125 3.34869141 19.27953125 2.06054688 19.30517578 C0.85205078 19.31484375 0.85205078 19.31484375 -0.38085938 19.32470703 C-1.1244873 19.33518066 -1.86811523 19.3456543 -2.63427734 19.35644531 C-4.51367188 19.12939453 -4.51367188 19.12939453 -6.51367188 17.12939453 C-6.68538091 14.4024223 -6.74612867 11.79032985 -6.70117188 9.06689453 C-6.70052734 8.32117188 -6.69988281 7.57544922 -6.69921875 6.80712891 C-6.64583045 0.27596062 -6.40472315 0.00488599 0 0 Z M-3.51367188 2.12939453 C-3.51367188 6.74939453 -3.51367188 11.36939453 -3.51367188 16.12939453 C2.75632812 16.45939453 9.02632813 16.78939453 15.48632812 17.12939453 C15.81632812 37.25939453 16.14632813 57.38939453 16.48632812 78.12939453 C21.76632812 78.12939453 27.04632813 78.12939453 32.48632812 78.12939453 C32.81632812 57.99939453 33.14632812 37.86939453 33.48632812 17.12939453 C39.75632812 16.79939453 46.02632813 16.46939453 52.48632812 16.12939453 C52.48632812 11.50939453 52.48632812 6.88939453 52.48632812 2.12939453 C34.00632812 2.12939453 15.52632813 2.12939453 -3.51367188 2.12939453 Z " fill="#C4C4C4" transform="translate(397.513671875,104.87060546875)"/>
<path d="M0 0 C1.58669495 -0.00472824 1.58669495 -0.00472824 3.20544434 -0.009552 C4.93196228 -0.00651566 4.93196228 -0.00651566 6.69335938 -0.00341797 C8.45226501 -0.00485306 8.45226501 -0.00485306 10.2467041 -0.00631714 C12.73169 -0.00699917 15.21667766 -0.00514331 17.70166016 -0.00097656 C21.52054825 0.00437134 25.33931872 -0.00092083 29.15820312 -0.00732422 C31.56575547 -0.00666344 33.97330774 -0.00538229 36.38085938 -0.00341797 C38.10737732 -0.00645432 38.10737732 -0.00645432 39.86877441 -0.009552 C40.92657104 -0.00639984 41.98436768 -0.00324768 43.07421875 0 C44.47867249 0.00119339 44.47867249 0.00119339 45.91149902 0.00241089 C48.03710938 0.12939453 48.03710938 0.12939453 49.03710938 1.12939453 C49.19028929 3.78942264 49.26870812 6.40561333 49.28710938 9.06689453 C49.30773437 9.80875 49.32835937 10.55060547 49.34960938 11.31494141 C49.36523438 13.46923828 49.36523438 13.46923828 49.03710938 17.12939453 C45.4040488 19.55143492 43.71891915 19.36242344 39.40039062 19.32470703 C38.10166016 19.31826172 36.80292969 19.31181641 35.46484375 19.30517578 C34.0930963 19.28846514 32.72135151 19.27153524 31.34960938 19.25439453 C29.96615219 19.24436127 28.5826881 19.23523602 27.19921875 19.22705078 C23.81167485 19.2034442 20.42447866 19.1705149 17.03710938 19.12939453 C16.70710938 23.08939453 16.37710937 27.04939453 16.03710938 31.12939453 C17.81859375 31.03400391 19.60007812 30.93861328 21.43554688 30.84033203 C23.76104141 30.7278081 26.0865638 30.61585859 28.41210938 30.50439453 C29.58773437 30.43994141 30.76335937 30.37548828 31.97460938 30.30908203 C33.65683594 30.23173828 33.65683594 30.23173828 35.37304688 30.15283203 C36.92838135 30.07427979 36.92838135 30.07427979 38.51513672 29.99414062 C41.03710938 30.12939453 41.03710938 30.12939453 43.03710938 32.12939453 C43.18208922 34.71003582 43.22388483 37.17883337 43.16210938 39.75439453 C43.15308594 40.46080078 43.1440625 41.16720703 43.13476562 41.89501953 C43.11118541 43.63995551 43.07531398 45.38471748 43.03710938 47.12939453 C39.44274944 48.76654193 36.6773447 49.37080079 32.73632812 49.32470703 C31.41507935 49.31721436 31.41507935 49.31721436 30.06713867 49.30957031 C28.41258667 49.2822583 28.41258667 49.2822583 26.72460938 49.25439453 C23.19773437 49.21314453 19.67085938 49.17189453 16.03710938 49.12939453 C16.03710938 59.02939453 16.03710938 68.92939453 16.03710938 79.12939453 C13.70547101 80.29521371 12.31557456 80.25845063 9.72070312 80.26220703 C8.45129883 80.26414063 8.45129883 80.26414063 7.15625 80.26611328 C6.27130859 80.26224609 5.38636719 80.25837891 4.47460938 80.25439453 C3.58580078 80.25826172 2.69699219 80.26212891 1.78125 80.26611328 C0.93626953 80.26482422 0.09128906 80.26353516 -0.77929688 80.26220703 C-1.94634155 80.26051514 -1.94634155 80.26051514 -3.13696289 80.25878906 C-4.96289062 80.12939453 -4.96289062 80.12939453 -5.96289062 79.12939453 C-6.06318919 76.70082418 -6.09907487 74.3006784 -6.09228516 71.87158203 C-6.09403748 71.11226379 -6.09578979 70.35294556 -6.09759521 69.57061768 C-6.10201392 67.04852037 -6.09907568 64.52649261 -6.09570312 62.00439453 C-6.09637616 60.25943997 -6.09734618 58.51448549 -6.09860229 56.76953125 C-6.10007929 53.10757558 -6.09792465 49.44564425 -6.09326172 45.78369141 C-6.08756443 41.07894961 -6.09084342 36.37426485 -6.09683418 31.66952515 C-6.10043974 28.06485562 -6.09930123 24.46019971 -6.09670639 20.85552979 C-6.09603711 19.12030023 -6.09686559 17.38506945 -6.09918594 15.64984131 C-6.10171239 13.22892966 -6.09787201 10.80811167 -6.09228516 8.38720703 C-6.09430939 7.66301575 -6.09633362 6.93882446 -6.09841919 6.19268799 C-6.07327101 0.34016754 -5.76800058 0.00490118 0 0 Z M-3.96289062 1.12939453 C-3.96289062 26.53939453 -3.96289062 51.94939453 -3.96289062 78.12939453 C1.64710938 78.12939453 7.25710938 78.12939453 13.03710938 78.12939453 C13.03710938 67.89939453 13.03710938 57.66939453 13.03710938 47.12939453 C22.60710937 47.12939453 32.17710937 47.12939453 42.03710938 47.12939453 C42.03710938 42.50939453 42.03710938 37.88939453 42.03710938 33.12939453 C40.96681808 31.83394005 40.96681808 31.83394005 38.44506836 32.01586914 C37.31915283 32.02110596 36.1932373 32.02634277 35.03320312 32.03173828 C33.21079102 32.03657227 33.21079102 32.03657227 31.3515625 32.04150391 C30.07216797 32.04988281 28.79277344 32.05826172 27.47460938 32.06689453 C25.5497168 32.07366211 25.5497168 32.07366211 23.5859375 32.08056641 C20.40297517 32.09239898 17.22003663 32.11033509 14.03710938 32.12939453 C14.03710938 26.84939453 14.03710938 21.56939453 14.03710938 16.12939453 C24.92710937 16.12939453 35.81710937 16.12939453 47.03710938 16.12939453 C47.03710938 11.17939453 47.03710938 6.22939453 47.03710938 1.12939453 C30.20710938 1.12939453 13.37710937 1.12939453 -3.96289062 1.12939453 Z " fill="#787878" transform="translate(335.962890625,104.87060546875)"/>
<path d="M0 0 C4.24748602 0.11282385 7.09260148 0.33820695 10.1484375 3.39404297 C11.1907609 4.73724323 12.18909521 6.11537372 13.1484375 7.51904297 C14.39225451 9.06570238 15.64271265 10.60703575 16.8984375 12.14404297 C17.89423828 13.41248047 17.89423828 13.41248047 18.91015625 14.70654297 C25.39389318 22.85364697 32.24814797 30.72383534 39.1484375 38.51904297 C38.6534375 39.50904297 38.6534375 39.50904297 38.1484375 40.51904297 C31.79597271 34.52390433 26.51425495 27.84368857 21.16015625 20.96435547 C19.21867581 18.52319138 19.21867581 18.52319138 17.12109375 16.49560547 C14.37259944 13.7416686 12.15439335 10.65620427 9.83203125 7.54248047 C8.12911416 5.30045961 8.12911416 5.30045961 5.1484375 3.51904297 C0.8584375 3.18904297 -3.4315625 2.85904297 -7.8515625 2.51904297 C-7.8515625 27.59904297 -7.8515625 52.67904297 -7.8515625 78.51904297 C-2.2415625 78.51904297 3.3684375 78.51904297 9.1484375 78.51904297 C9.1484375 64.32904297 9.1484375 50.13904297 9.1484375 35.51904297 C10.6334375 36.01404297 10.6334375 36.01404297 12.1484375 36.51904297 C11.98400146 37.16848877 11.81956543 37.81793457 11.65014648 38.48706055 C11.01097388 42.34977811 11.06371244 46.13062645 11.12109375 50.03076172 C11.13372938 51.69156701 11.14609111 53.3523744 11.15820312 55.01318359 C11.18310918 57.62042852 11.21120502 60.22756352 11.24438477 62.8347168 C11.27447664 65.35840582 11.29231761 67.88195127 11.30859375 70.40576172 C11.32205338 71.18908371 11.335513 71.9724057 11.34938049 72.77946472 C11.35830843 74.6938088 11.26230358 76.60806744 11.1484375 78.51904297 C9.1484375 80.51904297 9.1484375 80.51904297 7.17724609 80.74609375 C5.9989624 80.7303833 5.9989624 80.7303833 4.796875 80.71435547 C3.52070313 80.7046875 3.52070313 80.7046875 2.21875 80.69482422 C0.88457031 80.6696875 0.88457031 80.6696875 -0.4765625 80.64404297 C-1.37375 80.63501953 -2.2709375 80.62599609 -3.1953125 80.61669922 C-5.41432836 80.59309267 -7.63281327 80.56016607 -9.8515625 80.51904297 C-11.34033784 77.54149229 -10.99024762 74.50389698 -10.98095703 71.23950195 C-10.98270935 70.48979126 -10.98446167 69.74008057 -10.98626709 68.96765137 C-10.99067729 66.48345644 -10.98775083 63.9993324 -10.984375 61.51513672 C-10.98504821 59.79403164 -10.98601837 58.07292665 -10.98727417 56.3518219 C-10.98874996 52.7429209 -10.98660014 49.13404462 -10.98193359 45.52514648 C-10.9762321 40.88881434 -10.97951872 36.25254002 -10.98550606 31.61620998 C-10.98911124 28.06215475 -10.98797336 24.50811333 -10.98537827 20.95405769 C-10.9847091 19.24394791 -10.98553707 17.5338369 -10.98785782 15.82372856 C-10.9903841 13.43884812 -10.98654432 11.05406277 -10.98095703 8.66918945 C-10.98298126 7.95591995 -10.98500549 7.24265045 -10.98709106 6.50776672 C-10.95292498 -1.32395498 -6.70104921 0.05731161 0 0 Z " fill="#444444" transform="translate(254.8515625,104.48095703125)"/>
<path d="M0 0 C0.83265381 0.00523682 1.66530762 0.01047363 2.52319336 0.01586914 C3.42231445 0.0190918 4.32143555 0.02231445 5.24780273 0.02563477 C6.66609375 0.03820312 6.66609375 0.03820312 8.11303711 0.05102539 C9.06243164 0.05553711 10.01182617 0.06004883 10.98999023 0.06469727 C13.34356776 0.07652429 15.69702188 0.09300514 18.05053711 0.11352539 C19.22963592 3.65082181 19.18484141 6.46499726 19.19580078 10.19946289 C19.19915939 10.91684631 19.20251801 11.63422974 19.20597839 12.37335205 C19.21547879 14.7450941 19.21743089 17.1167655 19.21850586 19.48852539 C19.22171851 21.13614939 19.22508259 22.78377309 19.22859192 24.43139648 C19.2345805 27.88469098 19.23643204 31.33796045 19.23583984 34.79125977 C19.23573811 39.22002648 19.24940327 43.64863329 19.26661205 48.07736206 C19.27771898 51.47966248 19.27975947 54.88192403 19.27923012 58.28424072 C19.28041171 59.91734367 19.28484351 61.55044758 19.29256248 63.18353271 C19.30233831 65.46499927 19.29949428 67.74611594 19.29345703 70.02758789 C19.29488205 71.32647949 19.29630707 72.62537109 19.29777527 73.96362305 C19.05053711 77.11352539 19.05053711 77.11352539 17.05053711 80.11352539 C11.90260149 81.09528328 7.17429459 81.02583004 2.05053711 80.11352539 C-1.49737814 77.67502017 -3.55473005 74.64575633 -5.94946289 71.11352539 C-7.26280721 69.57539714 -8.59511208 68.05317242 -9.94946289 66.55102539 C-10.94983158 65.40551393 -11.94997877 64.25980874 -12.94946289 63.11352539 C-12.61946289 62.45352539 -12.28946289 61.79352539 -11.94946289 61.11352539 C-7.98898068 64.83397837 -4.75078704 68.86962342 -1.50024414 73.22290039 C-0.07763321 75.21940998 -0.07763321 75.21940998 2.05053711 76.11352539 C2.05053711 76.77352539 2.05053711 77.43352539 2.05053711 78.11352539 C6.67053711 78.11352539 11.29053711 78.11352539 16.05053711 78.11352539 C16.05053711 52.70352539 16.05053711 27.29352539 16.05053711 1.11352539 C10.44053711 1.11352539 4.83053711 1.11352539 -0.94946289 1.11352539 C-0.94946289 15.96352539 -0.94946289 30.81352539 -0.94946289 46.11352539 C-1.93946289 45.78352539 -2.92946289 45.45352539 -3.94946289 45.11352539 C-5.13696289 42.55102539 -5.13696289 42.55102539 -5.94946289 40.11352539 C-5.28946289 40.44352539 -4.62946289 40.77352539 -3.94946289 41.11352539 C-3.92440674 39.90704346 -3.89935059 38.70056152 -3.87353516 37.45751953 C-3.77963766 32.99776878 -3.67937456 28.53818026 -3.57714844 24.07861328 C-3.53373248 22.14538355 -3.49206247 20.2121138 -3.45214844 18.27880859 C-3.39460658 15.50614337 -3.33086669 12.73368082 -3.26586914 9.96118164 C-3.24915665 9.09139175 -3.23244415 8.22160187 -3.21522522 7.32545471 C-3.03716796 0.17686701 -3.03716796 0.17686701 0 0 Z " fill="#636363" transform="translate(299.949462890625,104.886474609375)"/>
<path d="M0 0 C0 -0.66 0 -1.32 0 -2 C3.15849685 -3.57924842 6.5365128 -3.14316514 10 -3.125 C11.10601563 -3.13080078 11.10601563 -3.13080078 12.234375 -3.13671875 C17.7466804 -3.1266598 17.7466804 -3.1266598 20 -2 C20.02312821 5.67536627 20.04091753 13.35072896 20.05181217 21.02612209 C20.05703995 24.58977422 20.06413569 28.15340257 20.07543945 31.71704102 C20.08834176 35.81006097 20.09322906 39.9030558 20.09765625 43.99609375 C20.10281754 45.28148544 20.10797882 46.56687714 20.11329651 47.89122009 C20.11337204 49.07236893 20.11344757 50.25351776 20.11352539 51.47045898 C20.115746 52.51636703 20.11796661 53.56227509 20.12025452 54.63987732 C20 57 20 57 19 58 C17.58429877 58.08651611 16.164405 58.10704904 14.74609375 58.09765625 C13.89208984 58.09443359 13.03808594 58.09121094 12.15820312 58.08789062 C11.26037109 58.07951172 10.36253906 58.07113281 9.4375 58.0625 C8.53580078 58.05798828 7.63410156 58.05347656 6.70507812 58.04882812 C4.46998686 58.03700225 2.23502563 58.0205222 0 58 C0 57.01 0 56.02 0 55 C-0.59425781 55.28875 -1.18851563 55.5775 -1.80078125 55.875 C-9.25211978 59.212458 -15.96856651 60.56264066 -23.91796875 58.09375 C-26.32733433 57.1422375 -28.67065638 56.13182857 -31 55 C-27.50100094 53.83366698 -25.94606489 54.26179537 -22.375 55 C-15.30882933 56.26456259 -8.51173935 56.45936153 -2 53 C-1.67 52.34 -1.34 51.68 -1 51 C-0.01 51 0.98 51 2 51 C2 52.65 2 54.3 2 56 C7.28 56 12.56 56 18 56 C18 37.52 18 19.04 18 0 C12.72 0 7.44 0 2 0 C2 1.32 2 2.64 2 4 C0.68 4 -0.64 4 -2 4 C-2.33 3.34 -2.66 2.68 -3 2 C-8.53335643 -1.88830452 -14.50714306 -1.78109557 -21 -1 C-23.80529355 -0.10230606 -26.3862106 0.94774199 -29.0390625 2.22265625 C-29.68617188 2.47917969 -30.33328125 2.73570312 -31 3 C-31.66 2.67 -32.32 2.34 -33 2 C-22.62210555 -4.18682169 -11.20539785 -5.37859097 0 0 Z " fill="#BBBBBB" transform="translate(656,127)"/>
<path d="M0 0 C1.0209375 -0.01160156 1.0209375 -0.01160156 2.0625 -0.0234375 C7.12155878 -0.00344122 7.12155878 -0.00344122 9.375 2.25 C9.77547444 4.57275177 10.1147104 6.90739357 10.375 9.25 C10.82875 8.59 11.2825 7.93 11.75 7.25 C12.28625 6.59 12.8225 5.93 13.375 5.25 C14.035 5.25 14.695 5.25 15.375 5.25 C15.375 4.59 15.375 3.93 15.375 3.25 C21.35527459 0.06052022 26.6366421 -0.35621905 33.375 0.25 C34.375 1.25 34.375 1.25 34.47265625 5.06640625 C34.46598089 6.64846682 34.45401875 8.23051159 34.4375 9.8125 C34.43298828 10.61880859 34.42847656 11.42511719 34.42382812 12.25585938 C34.41200518 14.25393756 34.39406914 16.25197783 34.375 18.25 C32.375 19.25 32.375 19.25 29.6015625 19.1796875 C23.9437723 19.30298075 17.85761582 21.76738418 13.8125 25.8125 C10.8768204 30.12967589 10.23934284 34.06169647 10.09375 39.16015625 C10.05636719 40.31451172 10.01898437 41.46886719 9.98046875 42.65820312 C9.9100436 45.09830404 9.83973146 47.53840823 9.76953125 49.97851562 C9.73214844 51.13158203 9.69476562 52.28464844 9.65625 53.47265625 C9.61081055 55.06219116 9.61081055 55.06219116 9.56445312 56.68383789 C9.375 59.25 9.375 59.25 8.375 61.25 C5.22918577 61.27888514 2.08340531 61.29675923 -1.0625 61.3125 C-1.96033203 61.32087891 -2.85816406 61.32925781 -3.78320312 61.33789062 C-5.06420898 61.34272461 -5.06420898 61.34272461 -6.37109375 61.34765625 C-7.16185303 61.35289307 -7.9526123 61.35812988 -8.76733398 61.36352539 C-10.625 61.25 -10.625 61.25 -11.625 60.25 C-11.71876053 58.43944975 -11.7424411 56.62522799 -11.73852539 54.81225586 C-11.73844986 53.65112778 -11.73837433 52.48999969 -11.73829651 51.29368591 C-11.73313522 50.030168 -11.72797394 48.76665009 -11.72265625 47.46484375 C-11.7212413 46.17888809 -11.71982635 44.89293243 -11.71836853 43.56800842 C-11.71454418 40.14356557 -11.70471462 36.71916491 -11.69366455 33.29473877 C-11.68344864 29.80261811 -11.67887053 26.31049066 -11.67382812 22.81835938 C-11.66309227 15.96222222 -11.64601684 9.10611313 -11.625 2.25 C-7.73422991 0.09428859 -4.37213451 -0.05025442 0 0 Z M-10.625 3.25 C-10.72387792 4.99382535 -10.75299032 6.74165543 -10.75439453 8.48828125 C-10.75754669 9.60614014 -10.76069885 10.72399902 -10.76394653 11.87573242 C-10.7619223 13.09236572 -10.75989807 14.30899902 -10.7578125 15.5625 C-10.75876923 16.80169189 -10.75972595 18.04088379 -10.76071167 19.31762695 C-10.76139374 21.94388281 -10.76003538 24.57004633 -10.75537109 27.19628906 C-10.74967381 30.56928714 -10.75295302 33.94220565 -10.75894356 37.31520081 C-10.7634177 40.52263677 -10.76028882 43.730063 -10.7578125 46.9375 C-10.75983673 48.1541333 -10.76186096 49.3707666 -10.76394653 50.62426758 C-10.76079437 51.74212646 -10.75764221 52.85998535 -10.75439453 54.01171875 C-10.75359894 55.00131592 -10.75280334 55.99091309 -10.75198364 57.01049805 C-10.87600848 59.2209725 -10.87600848 59.2209725 -9.625 60.25 C-6.76030675 60.32330331 -3.92606326 60.34217831 -1.0625 60.3125 C1.721875 60.291875 4.50625 60.27125 7.375 60.25 C7.705 50.02 8.035 39.79 8.375 29.25 C9.035 29.25 9.695 29.25 10.375 29.25 C10.91125 28.363125 11.4475 27.47625 12 26.5625 C14.61945395 22.49849425 17.9346679 20.11644468 22.375 18.25 C25.76546922 17.59315696 28.90661943 17.39451586 32.375 17.25 C32.375 12.3 32.375 7.35 32.375 2.25 C22.04671603 1.83686864 17.84476834 4.45286483 10.375 11.25 C9.385 12.24 8.395 13.23 7.375 14.25 C7.375 10.29 7.375 6.33 7.375 2.25 C4.56243719 2.22315688 1.75012759 2.20323812 -1.0625 2.1875 C-1.86494141 2.17912109 -2.66738281 2.17074219 -3.49414062 2.16210938 C-7.36936907 1.7530304 -7.36936907 1.7530304 -10.625 3.25 Z " fill="#363636" transform="translate(697.625,123.75)"/>
<path d="M0 0 C3.14588944 -0.02683697 6.29155271 -0.04675902 9.4375 -0.0625 C10.33533203 -0.07087891 11.23316406 -0.07925781 12.15820312 -0.08789062 C13.01220703 -0.09111328 13.86621094 -0.09433594 14.74609375 -0.09765625 C15.93223267 -0.10551147 15.93223267 -0.10551147 17.14233398 -0.11352539 C19 0 19 0 20 1 C20.07258946 3.18639453 20.08373783 5.37500389 20.0625 7.5625 C20.05347656 8.76003906 20.04445313 9.95757812 20.03515625 11.19140625 C20.02355469 12.11824219 20.01195312 13.04507813 20 14 C20.58523438 13.83757812 21.17046875 13.67515625 21.7734375 13.5078125 C25.51152504 12.65526622 29.51826084 12.25913042 33 14 C33.44921875 17.08984375 33.44921875 17.08984375 33.6875 20.9375 C33.77386719 22.20464844 33.86023438 23.47179687 33.94921875 24.77734375 C34 28 34 28 33 30 C29 31 29 31 20 31 C20.33 38.92 20.66 46.84 21 55 C22.65 55.33 24.3 55.66 26 56 C26.99 56.33 27.98 56.66 29 57 C28 58 28 58 24.5625 58.1875 C21 58 21 58 19 56 C18.77294922 53.29443359 18.77294922 53.29443359 18.8046875 49.8984375 C18.81113281 48.68671875 18.81757812 47.475 18.82421875 46.2265625 C18.84097656 44.95554688 18.85773437 43.68453125 18.875 42.375 C18.88402344 41.09625 18.89304687 39.8175 18.90234375 38.5 C18.92597618 35.33325421 18.96184814 32.16660415 19 29 C23.29 29 27.58 29 32 29 C32 24.38 32 19.76 32 15 C27.71 15 23.42 15 19 15 C19 10.71 19 6.42 19 2 C13.06 2 7.12 2 1 2 C1 6.62 1 11.24 1 16 C-1.64 16 -4.28 16 -7 16 C-7 19.96 -7 23.92 -7 28 C-5.2984375 27.9690625 -5.2984375 27.9690625 -3.5625 27.9375 C0 28 0 28 1 29 C1.0883967 31.3756852 1.11530305 33.72208674 1.09765625 36.09765625 C1.0962413 36.80651474 1.09482635 37.51537323 1.09336853 38.24571228 C1.08775443 40.51801712 1.07519963 42.79022475 1.0625 45.0625 C1.05748681 46.59960796 1.05292359 48.13671745 1.04882812 49.67382812 C1.03778042 53.44925642 1.02050641 57.22461171 1 61 C1.66 61 2.32 61 3 61 C3.268125 61.928125 3.53625 62.85625 3.8125 63.8125 C4.92367817 66.79513615 5.52454549 68.11865457 8 70 C9.485 70.495 9.485 70.495 11 71 C11 71.66 11 72.32 11 73 C7.69002422 72.42684402 6.09571203 71.51138114 3.875 69 C3.37742187 68.46375 2.87984375 67.9275 2.3671875 67.375 C-2.04661958 59.70758657 -1.09656263 50.95863677 -0.625 42.4375 C-0.56828125 41.23802734 -0.5115625 40.03855469 -0.453125 38.80273438 C-0.31280871 35.86778526 -0.16151952 32.93384565 0 30 C-2.64 30 -5.28 30 -8 30 C-8 24.72 -8 19.44 -8 14 C-4.535 13.505 -4.535 13.505 -1 13 C-0.67 8.71 -0.34 4.42 0 0 Z " fill="#606060" transform="translate(571,111)"/>
<path d="M0 0 C1.04590805 0.00222061 2.0918161 0.00444122 3.16941833 0.00672913 C4.35056717 0.00680466 5.531716 0.00688019 6.74865723 0.00695801 C8.03404892 0.01211929 9.31944061 0.01728058 10.64378357 0.02259827 C12.60601112 0.02472069 12.60601112 0.02472069 14.60787964 0.02688599 C18.09150591 0.03071042 21.57509071 0.04054005 25.05870056 0.05158997 C28.6111444 0.06180569 32.16359491 0.06638395 35.71604919 0.07142639 C42.69067564 0.0821624 49.66527449 0.09923792 56.63987732 0.12025452 C56.63987732 0.45025452 56.63987732 0.78025452 56.63987732 1.12025452 C37.49987732 1.12025452 18.35987732 1.12025452 -1.36012268 1.12025452 C-1.36012268 6.40025452 -1.36012268 11.68025452 -1.36012268 17.12025452 C-0.00016174 17.10865295 1.35979919 17.09705139 2.76097107 17.08509827 C4.53310512 17.0757219 6.30524065 17.06662153 8.07737732 17.05775452 C8.97520935 17.04937561 9.87304138 17.0409967 10.79808044 17.03236389 C11.65208435 17.02914124 12.50608826 17.02591858 13.38597107 17.02259827 C14.57210999 17.01474304 14.57210999 17.01474304 15.7822113 17.00672913 C17.63987732 17.12025452 17.63987732 17.12025452 18.63987732 18.12025452 C18.73379028 20.02269214 18.7573139 21.9286391 18.75340271 23.83338928 C18.75332718 25.05457962 18.75325165 26.27576996 18.75317383 27.53396606 C18.74806643 28.87653137 18.74285043 30.21909627 18.73753357 31.56166077 C18.73566931 32.92786609 18.73424545 34.29407209 18.73324585 35.66027832 C18.72942126 39.26227147 18.71959149 42.86422452 18.70854187 46.46620178 C18.69832648 50.13929197 18.69374796 53.81238861 18.68870544 57.48548889 C18.67796916 64.69709786 18.66037285 71.90866547 18.63987732 79.12025452 C24.57987732 79.12025452 30.51987732 79.12025452 36.63987732 79.12025452 C36.63987732 79.45025452 36.63987732 79.78025452 36.63987732 80.12025452 C30.36987732 80.12025452 24.09987732 80.12025452 17.63987732 80.12025452 C16.3103394 77.46117868 16.52001701 75.45460083 16.52635193 72.47718811 C16.52642746 71.29611481 16.52650299 70.1150415 16.52658081 68.8981781 C16.5317421 67.61794769 16.53690338 66.33771729 16.54222107 65.01869202 C16.54363602 63.71195526 16.54505096 62.40521851 16.54650879 61.05888367 C16.55032838 57.58349194 16.5601539 54.10814195 16.57121277 50.63276672 C16.58143889 47.08693507 16.58600899 43.54109667 16.59104919 39.99525452 C16.60177666 33.03690403 16.6188464 26.07858128 16.63987732 19.12025452 C15.36370544 19.14345764 14.08753357 19.16666077 12.77268982 19.19056702 C11.10342482 19.2093228 9.43415352 19.22752321 7.76487732 19.24525452 C6.5022406 19.27039124 6.5022406 19.27039124 5.21409607 19.29603577 C4.00559998 19.30570374 4.00559998 19.30570374 2.77268982 19.31556702 C2.02906189 19.32604065 1.28543396 19.33651428 0.51927185 19.3473053 C-1.36012268 19.12025452 -1.36012268 19.12025452 -3.36012268 17.12025452 C-3.53183171 14.39328228 -3.59257948 11.78118984 -3.54762268 9.05775452 C-3.54697815 8.31203186 -3.54633362 7.5663092 -3.54566956 6.79798889 C-3.49155442 0.17790397 -3.49155442 0.17790397 0 0 Z " fill="#454545" transform="translate(394.36012268066406,104.87974548339844)"/>
<path d="M0 0 C0 70.29 0 140.58 0 213 C-0.33 213 -0.66 213 -1 213 C-1.33 143.37 -1.66 73.74 -2 2 C-6.95 4.64 -11.9 7.28 -17 10 C-17.66 9.67 -18.32 9.34 -19 9 C-7 0 -7 0 0 0 Z " fill="#233334" transform="translate(158,86)"/>
<path d="M0 0 C0.33 0 0.66 0 1 0 C1 25.41 1 50.82 1 77 C6.94 77 12.88 77 19 77 C19 66.77 19 56.54 19 46 C28.57 46 38.14 46 48 46 C44.14259767 47.92870117 42.88370357 48.24283376 38.796875 48.1953125 C37.91354492 48.19031738 37.03021484 48.18532227 36.12011719 48.18017578 C35.00797852 48.16196777 33.89583984 48.14375977 32.75 48.125 C29.2025 48.08375 25.655 48.0425 22 48 C22 57.9 22 67.8 22 78 C19.66836164 79.16581918 18.27846518 79.12905609 15.68359375 79.1328125 C14.41418945 79.13474609 14.41418945 79.13474609 13.11914062 79.13671875 C12.23419922 79.13285156 11.34925781 79.12898438 10.4375 79.125 C9.54869141 79.12886719 8.65988281 79.13273437 7.74414062 79.13671875 C6.89916016 79.13542969 6.05417969 79.13414062 5.18359375 79.1328125 C4.01654907 79.13112061 4.01654907 79.13112061 2.82592773 79.12939453 C1 79 1 79 0 78 C-0.09498646 75.56603981 -0.12558417 73.16057048 -0.11352539 70.72631836 C-0.11367142 69.96539383 -0.11381744 69.2044693 -0.1139679 68.42048645 C-0.11326862 65.89357702 -0.10547555 63.36674038 -0.09765625 60.83984375 C-0.09579212 59.0924941 -0.0943682 57.34514393 -0.09336853 55.59779358 C-0.08954293 50.98968066 -0.07971229 46.38159905 -0.06866455 41.77349854 C-0.05845134 37.07491479 -0.0538711 32.37632601 -0.04882812 27.67773438 C-0.03809005 18.45180913 -0.02101313 9.22590716 0 0 Z " fill="#5A5A5A" transform="translate(330,106)"/>
<path d="M0 0 C4.85898957 1.77814296 8.06548028 4.7742916 11 9 C7.88636265 8.41239382 6.19006442 7.49805583 3.8125 5.4375 C0.18143843 2.71027411 -2.62929699 2.52730073 -7.08203125 2.7265625 C-9.08014251 2.90819698 -9.08014251 2.90819698 -11 4 C-11 5.98 -11 7.96 -11 10 C-6.27178398 12.50317319 -1.59472345 14.54993305 3.4375 16.375 C12.1393503 19.6784802 19.8115304 24.04200947 25 32 C27.45882272 37.6659828 27.53793474 43.0744279 26 49 C23.08636086 55.16948423 19.02634398 59.79850476 13 63 C12.401875 63.31839844 11.80375 63.63679688 11.1875 63.96484375 C2.69140847 67.56572629 -8.81641759 67.52958169 -17.57421875 64.9453125 C-24.57361577 61.85276846 -24.57361577 61.85276846 -26 59 C-24.58208592 59.45445964 -23.16571954 59.91374944 -21.75 60.375 C-20.56664062 60.75785156 -20.56664062 60.75785156 -19.359375 61.1484375 C-17 62 -17 62 -15.1796875 63.078125 C-11.97200007 64.43478133 -8.80297448 64.38300368 -5.375 64.375 C-4.6629541 64.37338867 -3.9509082 64.37177734 -3.21728516 64.37011719 C2.83533603 64.23021976 7.66909114 62.9355674 13 60 C14.093125 59.4225 15.18625 58.845 16.3125 58.25 C20.92791508 54.38593156 23.59651274 50.873531 24.44921875 44.80078125 C24.72492949 37.78489229 24.72492949 37.78489229 22.25 31.375 C20.27336205 29.28854883 18.32851077 27.66322198 16 26 C16 25.34 16 24.68 16 24 C13.03 23.01 10.06 22.02 7 21 C7 20.34 7 19.68 7 19 C6.2265625 18.82984375 5.453125 18.6596875 4.65625 18.484375 C-9.43916914 15.20474777 -9.43916914 15.20474777 -13 12 C-14.29117622 9.22911297 -14.55988801 7.00247637 -14 4 C-10.38628182 -0.81829091 -5.57179784 -0.94615435 0 0 Z " fill="#464646" transform="translate(530,120)"/>
<path d="M0 0 C3.19621036 0.52976592 5.79624645 1.80425419 8.6484375 3.30078125 C9.56165771 3.77805664 10.47487793 4.25533203 11.41577148 4.74707031 C12.39231689 5.26366211 13.3688623 5.78025391 14.375 6.3125 C15.38054932 6.84069336 16.38609863 7.36888672 17.42211914 7.91308594 C28.01009747 13.49429472 38.51588039 19.2265406 49 25 C45.51731511 26.17917302 45.12807454 26.06129694 41.53125 24.33984375 C40.18086055 23.55031034 38.8374288 22.74879457 37.5 21.9375 C36.0599171 21.09409053 34.61849872 20.25295736 33.17578125 19.4140625 C32.46631348 18.99930664 31.7568457 18.58455078 31.02587891 18.15722656 C28.2982495 16.59914469 25.50766189 15.19485983 22.6875 13.8125 C15.27737838 10.17810792 8.0770158 6.24620948 1 2 C1.33 19.49 1.66 36.98 2 55 C1.34 55 0.68 55 0 55 C-1.21078127 49.31341606 -1.14433723 43.73277161 -1.1328125 37.94921875 C-1.13376923 36.89466995 -1.13472595 35.84012115 -1.13571167 34.75361633 C-1.13639018 32.53390442 -1.13455892 30.31419049 -1.13037109 28.09448242 C-1.12499146 24.68208425 -1.1303409 21.26981611 -1.13671875 17.85742188 C-1.13605843 15.70052054 -1.13477824 13.54361929 -1.1328125 11.38671875 C-1.13483673 10.36076096 -1.13686096 9.33480316 -1.13894653 8.27775574 C-1.13579437 7.33620132 -1.13264221 6.39464691 -1.12939453 5.42456055 C-1.12859894 4.59216354 -1.12780334 3.75976654 -1.12698364 2.90214539 C-1 1 -1 1 0 0 Z " fill="#25393B" transform="translate(12,11)"/>
<path d="M0 0 C16 0 16 0 21.4375 4.8125 C22.99462718 6.84773837 24.51568729 8.91106341 26 11 C27.55211299 12.88360732 29.11438079 14.75890054 30.6875 16.625 C34.00354328 20.7188806 37.22212657 24.88057315 40.42578125 29.0625 C41.84278137 30.80650014 43.30374667 32.33734981 44.9375 33.875 C47 36 47 36 47 39 C40.64753521 33.00486136 35.36581745 26.3246456 30.01171875 19.4453125 C28.07023831 17.00414842 28.07023831 17.00414842 25.97265625 14.9765625 C23.22416194 12.22262563 21.00595585 9.1371613 18.68359375 6.0234375 C16.98067666 3.78141664 16.98067666 3.78141664 14 2 C9.71 1.67 5.42 1.34 1 1 C1 26.08 1 51.16 1 77 C0.67 77 0.34 77 0 77 C0 51.59 0 26.18 0 0 Z " fill="#CACACA" transform="translate(246,106)"/>
<path d="M0 0 C0 -0.66 0 -1.32 0 -2 C3.15849685 -3.57924842 6.5365128 -3.14316514 10 -3.125 C11.10601563 -3.13080078 11.10601563 -3.13080078 12.234375 -3.13671875 C17.7466804 -3.1266598 17.7466804 -3.1266598 20 -2 C20 17.47 20 36.94 20 57 C19.67 57 19.34 57 19 57 C19 37.86 19 18.72 19 -1 C13.06 -1 7.12 -1 1 -1 C1 0.32 1 1.64 1 3 C-0.48034764 2.52449439 -1.95925021 2.04448784 -3.4375 1.5625 C-4.26121094 1.29566406 -5.08492187 1.02882812 -5.93359375 0.75390625 C-8 0 -8 0 -9 -1 C-16.42569726 -1.74623976 -22.31315253 -1.00969854 -29.0390625 2.22265625 C-29.68617188 2.47917969 -30.33328125 2.73570312 -31 3 C-31.66 2.67 -32.32 2.34 -33 2 C-22.62210555 -4.18682169 -11.20539785 -5.37859097 0 0 Z " fill="#373737" transform="translate(656,127)"/>
<path d="M0 0 C4.61823241 2.18758377 6.72295755 4.49751946 9 9 C9.75584198 13.67992157 10.08357028 18.71246274 8.015625 23.078125 C6.19081432 25.39856327 4.44973617 26.82982956 1.6875 27.875 C1.130625 27.91625 0.57375 27.9575 0 28 C0.804375 27.236875 1.60875 26.47375 2.4375 25.6875 C6.41205087 21.5190686 6.27868398 17.93602968 6.22265625 12.4453125 C5.93470186 9.28286608 5.04158753 7.41965929 3 5 C-1.4750388 2.0166408 -5.75630352 2.40883656 -11 3 C-14.29276359 4.54558291 -15.46636496 5.65814101 -16.8046875 9.0234375 C-18.22479433 14.16036714 -18.1924562 18.017145 -16 23 C-14.15604365 24.8628419 -14.15604365 24.8628419 -12 26 C-11.01 26.66 -10.02 27.32 -9 28 C-12.74224839 27.7389129 -14.67527161 27.25548483 -17.65625 24.91015625 C-21.3451528 20.32976861 -20.87713374 16.32039263 -20.66015625 10.62890625 C-19.97851131 6.8818758 -19.39067146 5.24727453 -16.75 2.5625 C-11.54430286 -1.03146885 -6.08104064 -1.07765277 0 0 Z " fill="#5C5C5C" transform="translate(649,140)"/>
<path d="M0 0 C0.33 0 0.66 0 1 0 C1 5.61 1 11.22 1 17 C-2.30994713 18.65497356 -5.99123 18.10084335 -9.625 18.0625 C-10.42679687 18.05798828 -11.22859375 18.05347656 -12.0546875 18.04882812 C-14.03649006 18.03703168 -16.01825433 18.01909605 -18 18 C-17.99555878 18.72218719 -17.99111755 19.44437439 -17.98654175 20.18844604 C-17.94650625 26.98666022 -17.91603662 33.78485684 -17.89637566 40.58315849 C-17.88592802 44.07843927 -17.87175117 47.57362283 -17.84912109 51.06884766 C-17.82328047 55.08497056 -17.81353534 59.10099097 -17.8046875 63.1171875 C-17.79436493 64.37554413 -17.78404236 65.63390076 -17.77340698 66.9303894 C-17.77325592 68.09144196 -17.77310486 69.25249451 -17.77294922 70.44873047 C-17.768508 71.47465302 -17.76406677 72.50057556 -17.75949097 73.55758667 C-18 76 -18 76 -20 78 C-20.02312764 70.06386213 -20.04091723 62.12773824 -20.05181217 54.19157505 C-20.05704008 50.50685502 -20.06413605 46.82215797 -20.07543945 43.13745117 C-20.08627162 39.58429169 -20.09227753 36.03115437 -20.09487724 32.47797966 C-20.0967309 31.11954334 -20.10035038 29.76110829 -20.10573006 28.40268135 C-20.11294475 26.50617777 -20.11340809 24.60965207 -20.11352539 22.71313477 C-20.115746 21.63169693 -20.11796661 20.55025909 -20.12025452 19.43605042 C-20 17 -20 17 -19 16 C-17.58429877 15.91348389 -16.164405 15.89295096 -14.74609375 15.90234375 C-13.46508789 15.90717773 -13.46508789 15.90717773 -12.15820312 15.91210938 C-11.26037109 15.92048828 -10.36253906 15.92886719 -9.4375 15.9375 C-8.53580078 15.94201172 -7.63410156 15.94652344 -6.70507812 15.95117188 C-4.47002411 15.96299756 -2.23500398 15.98093362 0 16 C0 10.72 0 5.44 0 0 Z " fill="#444444" transform="translate(451,106)"/>
<path d="M0 0 C2.0625 0.4375 2.0625 0.4375 4 1 C3.51756836 1.26627197 3.03513672 1.53254395 2.53808594 1.80688477 C0.27458225 3.05730103 -1.98790068 4.30954483 -4.25 5.5625 C-5.4870166 6.24759644 -5.4870166 6.24759644 -6.74902344 6.9465332 C-11.28680494 9.46747371 -15.78875314 12.0325732 -20.25 14.6875 C-25.46061163 17.75803899 -30.82073573 20.42974664 -36.25 23.08984375 C-41.22618807 25.57660297 -46.03804123 28.36173448 -50.84667969 31.15576172 C-55.79221199 34 -55.79221199 34 -58 34 C-58 33.34 -58 32.68 -58 32 C-57.02804688 31.48953125 -56.05609375 30.9790625 -55.0546875 30.453125 C-46.52660489 25.96272555 -38.03032889 21.41555457 -29.5625 16.8125 C-28.66450684 16.32620117 -27.76651367 15.83990234 -26.84130859 15.33886719 C-21.5660681 12.46358409 -16.38545396 9.47174288 -11.26171875 6.33398438 C-7.92899396 4.36830991 -4.47219044 2.70452985 -1 1 C-0.67 0.67 -0.34 0.34 0 0 Z " fill="#284246" transform="translate(131,98)"/>
<path d="M0 0 C1.98 0.66 3.96 1.32 6 2 C6 2.66 6 3.32 6 4 C6.763125 4.103125 7.52625 4.20625 8.3125 4.3125 C25.19324222 7.45975702 25.19324222 7.45975702 31 14 C32.375 17.5 32.375 17.5 32 21 C30.5218879 23.87410687 28.84676299 25.4774375 26 27 C21.34458257 27.97714909 17.0434653 28.02525587 12.734375 25.86328125 C10.8125 24.5 10.8125 24.5 8 22 C8.33 21.34 8.66 20.68 9 20 C9.94875 20.66 10.8975 21.32 11.875 22 C16.3280148 24.55366767 20.97666296 24.97480841 26 24 C27.84635356 22.75320091 27.84635356 22.75320091 29 21 C29.23450072 17.98500142 29.23450072 17.98500142 28 15 C23.7669917 11.68223673 19.68778858 10.0785782 14.5625 8.5625 C8.92782479 6.81392638 4.46193008 4.91779226 0 1 C0 0.67 0 0.34 0 0 Z " fill="#545454" transform="translate(505,143)"/>
<path d="M0 0 C11.22 0 22.44 0 34 0 C32 2 32 2 29.11083984 2.22705078 C27.90637207 2.21657715 26.7019043 2.20610352 25.4609375 2.1953125 C23.50800781 2.18564453 23.50800781 2.18564453 21.515625 2.17578125 C20.13541405 2.15906929 18.75520571 2.14213939 17.375 2.125 C15.98698548 2.11497006 14.59896411 2.10584423 13.2109375 2.09765625 C9.80711974 2.07401863 6.40364494 2.04106867 3 2 C2.67 5.96 2.34 9.92 2 14 C4.67222656 13.85691406 4.67222656 13.85691406 7.3984375 13.7109375 C9.72393204 13.59841357 12.04945442 13.48646406 14.375 13.375 C15.550625 13.31054688 16.72625 13.24609375 17.9375 13.1796875 C19.05898438 13.128125 20.18046875 13.0765625 21.3359375 13.0234375 C22.89127197 12.94488525 22.89127197 12.94488525 24.47802734 12.86474609 C27 13 27 13 29 15 C29.14497985 17.58064129 29.18677545 20.04943884 29.125 22.625 C29.11597656 23.33140625 29.10695313 24.0378125 29.09765625 24.765625 C29.07407603 26.51056098 29.03820461 28.25532295 29 30 C28.67 30 28.34 30 28 30 C27.67 25.38 27.34 20.76 27 16 C18.09 15.67 9.18 15.34 0 15 C0 10.05 0 5.1 0 0 Z " fill="#424242" transform="translate(350,122)"/>
<path d="M0 0 C4.31248609 -0.02886537 8.62494762 -0.04675255 12.9375 -0.0625 C14.16919922 -0.07087891 15.40089844 -0.07925781 16.66992188 -0.08789062 C17.83974609 -0.09111328 19.00957031 -0.09433594 20.21484375 -0.09765625 C21.84087524 -0.10551147 21.84087524 -0.10551147 23.49975586 -0.11352539 C26 0 26 0 27 1 C27 5.62 27 10.24 27 15 C17.76 15 8.52 15 -1 15 C-1 14.67 -1 14.34 -1 14 C7.58 14 16.16 14 25 14 C25 10.04 25 6.08 25 2 C16.75 2 8.5 2 0 2 C0 1.34 0 0.68 0 0 Z " fill="#C4C4C4" transform="translate(351,137)"/>
<path d="M0 0 C1 1 1 1 1.09765625 4.81640625 C1.09098089 6.39846682 1.07901875 7.98051159 1.0625 9.5625 C1.05798828 10.36880859 1.05347656 11.17511719 1.04882812 12.00585938 C1.03700518 14.00393756 1.01906914 16.00197783 1 18 C-1.62315032 19.31157516 -3.23033436 18.89649988 -6.125 18.5625 C-7.03507813 18.46066406 -7.94515625 18.35882813 -8.8828125 18.25390625 C-9.58148437 18.17011719 -10.28015625 18.08632812 -11 18 C-11 17.67 -11 17.34 -11 17 C-7.7 17 -4.4 17 -1 17 C-1 12.05 -1 7.1 -1 2 C-11.85860721 2.91702425 -11.85860721 2.91702425 -19.92578125 9.5390625 C-20.28027344 10.02117187 -20.63476562 10.50328125 -21 11 C-21.33 9.68 -21.66 8.36 -22 7 C-20.68 6.34 -19.36 5.68 -18 5 C-18 4.34 -18 3.68 -18 3 C-12.01972541 -0.18947978 -6.7383579 -0.60621905 0 0 Z " fill="#717171" transform="translate(731,124)"/>
<path d="M0 0 C-2.14868809 2.14868809 -3.57262921 2.68863698 -6.375 3.75 C-10.79158613 5.64586575 -12.77349594 7.63976287 -15 12 C-16.05836661 15.17509982 -16.20243789 17.64282383 -16.31640625 20.98046875 C-16.35830078 22.14384766 -16.40019531 23.30722656 -16.44335938 24.50585938 C-16.48267578 25.72080078 -16.52199219 26.93574219 -16.5625 28.1875 C-16.60568359 29.41404297 -16.64886719 30.64058594 -16.69335938 31.90429688 C-16.7995309 34.93608381 -16.90157952 37.96795315 -17 41 C-17.66 41 -18.32 41 -19 41 C-19.02896822 36.56251365 -19.04678788 32.12505153 -19.0625 27.6875 C-19.07087891 26.42486328 -19.07925781 25.16222656 -19.08789062 23.86132812 C-19.09111328 22.65283203 -19.09433594 21.44433594 -19.09765625 20.19921875 C-19.10289307 19.08377686 -19.10812988 17.96833496 -19.11352539 16.8190918 C-19 14 -19 14 -18 11 C-17.34 11 -16.68 11 -16 11 C-15.7525 10.2575 -15.505 9.515 -15.25 8.75 C-13.58096016 5.07811236 -11.45943676 2.97295784 -8.125 0.75 C-5.35374755 -0.2280891 -2.91483243 -0.13249238 0 0 Z " fill="#4C4C4C" transform="translate(724,142)"/>
<path d="M0 0 C0 1.65 0 3.3 0 5 C5.94 5 11.88 5 18 5 C18 5.33 18 5.66 18 6 C11.73 6 5.46 6 -1 6 C-1 5.01 -1 4.02 -1 3 C-1.59425781 3.28875 -2.18851563 3.5775 -2.80078125 3.875 C-10.25211978 7.212458 -16.96856651 8.56264066 -24.91796875 6.09375 C-27.32733433 5.1422375 -29.67065638 4.13182857 -32 3 C-28.50100094 1.83366698 -26.94606489 2.26179537 -23.375 3 C-13.80420958 4.69916207 -8.44591879 0 0 0 Z " fill="#6D6D6D" transform="translate(657,179)"/>
<path d="M0 0 C1 2 1 2 0.4765625 3.85546875 C0.05503906 5.00982422 0.05503906 5.00982422 -0.375 6.1875 C-2.57464401 13.02748891 -2.72401709 19.86251087 -3 27 C-2.34 27 -1.68 27 -1 27 C-0.4121875 28.7634375 -0.4121875 28.7634375 0.1875 30.5625 C1.82209368 34.97118776 4.13782539 38.28690861 7 42 C1.7983123 39.87203685 -0.32410458 35.73790895 -3 31 C-6.47027876 22.63978298 -5.9442088 13.22747537 -2.8515625 4.83984375 C-2 3 -2 3 0 0 Z " fill="#464646" transform="translate(615,137)"/>
<path d="M0 0 C4.99795522 3.95671455 8.85663745 8.12502549 12.76171875 13.15234375 C15.29251112 16.37214765 17.91193504 19.50371492 20.5625 22.625 C21.02986572 23.17575195 21.49723145 23.72650391 21.97875977 24.29394531 C25.61234202 28.56453856 29.28339209 32.80137468 33 37 C32.505 37.99 32.505 37.99 32 39 C25.64753521 33.00486136 20.36581745 26.3246456 15.01171875 19.4453125 C13.11881765 17.14442689 11.10878541 15.10045029 9 13 C7.76588214 11.52114147 6.55718363 10.02069435 5.375 8.5 C4.78460938 7.7471875 4.19421875 6.994375 3.5859375 6.21875 C2.14439102 4.20200517 1.03201233 2.24794764 0 0 Z " fill="#454545" transform="translate(261,106)"/>
<path d="M0 0 C4.40345861 0.62430888 8.02367857 2.30194808 11.9375 4.3125 C12.60974609 4.6528125 13.28199219 4.993125 13.97460938 5.34375 C23.76267242 10.34751317 33.37690088 15.68813444 43 21 C39.51731511 22.17917302 39.12807454 22.06129694 35.53125 20.33984375 C34.18086055 19.55031034 32.8374288 18.74879457 31.5 17.9375 C30.0599171 17.09409053 28.61849872 16.25295736 27.17578125 15.4140625 C26.46631348 14.99930664 25.7568457 14.58455078 25.02587891 14.15722656 C21.38096985 12.07517439 17.60792089 10.26324109 13.83984375 8.41796875 C9.15450159 6.07852005 4.57813511 3.54140571 0 1 C0 0.67 0 0.34 0 0 Z " fill="#294549" transform="translate(18,15)"/>
<path d="M0 0 C11.91768846 -0.78520641 11.91768846 -0.78520641 16.1875 2.3125 C20.32464918 8.44689362 20.96532016 12.60896281 20 20 C18.38647821 23.43275154 16.30161219 25.50749809 12.6875 26.875 C12.130625 26.91625 11.57375 26.9575 11 27 C11.804375 26.236875 12.60875 25.47375 13.4375 24.6875 C17.41205087 20.5190686 17.27868398 16.93602968 17.22265625 11.4453125 C16.93470186 8.28286608 16.04158753 6.41965929 14 4 C10.71508627 1.81005752 9.16904361 1.64722661 5.3125 1.375 C4.31863281 1.30023438 3.32476563 1.22546875 2.30078125 1.1484375 C1.54152344 1.09945312 0.78226563 1.05046875 0 1 C0 0.67 0 0.34 0 0 Z " fill="#4F4F4F" transform="translate(638,141)"/>
<path d="M0 0 C0.68513672 -0.01224609 1.37027344 -0.02449219 2.07617188 -0.03710938 C3.86484112 -0.04237533 5.65298848 0.06549979 7.4375 0.1875 C10.20227453 2.95227453 9.96208441 5.3841753 10.4375 9.1875 C10.7675 9.8475 11.0975 10.5075 11.4375 11.1875 C10.4475 12.6725 10.4475 12.6725 9.4375 14.1875 C8.7775 14.1875 8.1175 14.1875 7.4375 14.1875 C7.4375 10.2275 7.4375 6.2675 7.4375 2.1875 C1.4975 2.5175 -4.4425 2.8475 -10.5625 3.1875 C-10.5625 2.5275 -10.5625 1.8675 -10.5625 1.1875 C-6.99164986 -0.00278338 -3.7164317 0.00351602 0 0 Z " fill="#464646" transform="translate(697.5625,123.8125)"/>
<path d="M0 0 C6.94058862 1.06778287 11.2573784 6.11059339 15.6796875 11.09765625 C17 13 17 13 17 16 C15.21118264 17.00508801 13.41885304 18.00392736 11.625 19 C10.62726562 19.556875 9.62953125 20.11375 8.6015625 20.6875 C6 22 6 22 4 22 C4 21.34 4 20.68 4 20 C5.45537568 19.16151196 6.91440373 18.32936066 8.375 17.5 C9.18710937 17.0359375 9.99921875 16.571875 10.8359375 16.09375 C13 15 13 15 15 15 C11.53314325 8.93300068 6.73512493 4.24504164 0 2 C0 1.34 0 0.68 0 0 Z " fill="#515151" transform="translate(537,106)"/>
<path d="M0 0 C3.96670899 0.44074544 6.68811135 1.82361603 10 4 C9.01 4.495 9.01 4.495 8 5 C5.69 4.01 3.38 3.02 1 2 C1 13.88 1 25.76 1 38 C0.67 38 0.34 38 0 38 C-0.16723026 32.74912156 -0.32782815 27.49809906 -0.48217773 22.24682617 C-0.53567402 20.45900968 -0.59100904 18.67124725 -0.64819336 16.88354492 C-0.72989235 14.31961734 -0.80505945 11.75557047 -0.87890625 9.19140625 C-0.90594131 8.3872377 -0.93297638 7.58306915 -0.96083069 6.75453186 C-1.01285627 4.83701578 -1.01187441 2.91818497 -1 1 C-0.67 0.67 -0.34 0.34 0 0 Z " fill="#29484C" transform="translate(12,111)"/>
<path d="M0 0 C5.83173794 1.40953029 10.69111273 3.7478039 15.9375 6.625 C16.71673828 7.04523438 17.49597656 7.46546875 18.29882812 7.8984375 C20.20252112 8.92619814 22.10173281 9.96225213 24 11 C24 11.66 24 12.32 24 13 C24.99 13 25.98 13 27 13 C27 13.66 27 14.32 27 15 C23.40252773 13.63358421 20.07041808 12.0328614 16.69921875 10.1796875 C15.72275391 9.64472656 14.74628906 9.10976562 13.74023438 8.55859375 C12.73283203 8.00300781 11.72542969 7.44742188 10.6875 6.875 C9.66076172 6.31167969 8.63402344 5.74835938 7.57617188 5.16796875 C5.04937949 3.78117107 2.52405506 2.39177165 0 1 C0 0.67 0 0.34 0 0 Z " fill="#2A484C" transform="translate(32,76)"/>
<path d="M0 0 C0 5.94 0 11.88 0 18 C-0.33 18 -0.66 18 -1 18 C-1.33 12.72 -1.66 7.44 -2 2 C-3.05960938 2.58910156 -4.11921875 3.17820312 -5.2109375 3.78515625 C-6.59872867 4.54469061 -7.98676213 5.3037824 -9.375 6.0625 C-10.42300781 6.64741211 -10.42300781 6.64741211 -11.4921875 7.24414062 C-13.29610184 8.22415178 -15.14583482 9.11875071 -17 10 C-17.66 9.67 -18.32 9.34 -19 9 C-7 0 -7 0 0 0 Z " fill="#253739" transform="translate(158,86)"/>
<path d="M0 0 C1.15465729 3.59226714 1.15465729 3.59226714 0.3125 5.8125 C-0.21642075 9.51494525 2.05281248 11.90740806 4 15 C4.33 15.66 4.66 16.32 5 17 C1.4332051 15.55463213 -0.18530899 13.80259054 -2.3125 10.625 C-3.11107422 9.46871094 -3.11107422 9.46871094 -3.92578125 8.2890625 C-5 6 -5 6 -4.796875 3.7890625 C-3.72298933 1.37808389 -2.40309804 0.9302315 0 0 Z " fill="#919191" transform="translate(499,162)"/>
<path d="M0 0 C0.625 1.8125 0.625 1.8125 1 4 C0.01 5.485 0.01 5.485 -1 7 C-2.30389355 14.60375817 -0.11632148 19.73779289 4 26 C4.33 26.66 4.66 27.32 5 28 C1.23331874 26.78928102 -0.37456497 24.49562548 -2.171875 21.05078125 C-4.78756971 14.5732354 -4.18061135 9.18706605 -1.7890625 2.75 C-1 1 -1 1 0 0 Z " fill="#4B4B4B" transform="translate(500,115)"/>
<path d="M0 0 C0 0.66 0 1.32 0 2 C-2.31 2.66 -4.62 3.32 -7 4 C-7 4.66 -7 5.32 -7 6 C-11 8 -15 10 -19 12 C-20.58941406 12.87205078 -20.58941406 12.87205078 -22.2109375 13.76171875 C-25 15 -25 15 -28 14 C-24.3366907 12.00086459 -20.67048184 10.00718702 -17.00146484 8.01855469 C-15.75325319 7.34101904 -14.50585192 6.66198825 -13.25927734 5.98144531 C-11.46922446 5.00453499 -9.67634352 4.03300652 -7.8828125 3.0625 C-6.80402832 2.47597656 -5.72524414 1.88945312 -4.61376953 1.28515625 C-2 0 -2 0 0 0 Z " fill="#294346" transform="translate(182,25)"/>
<path d="M0 0 C-2.14868809 2.14868809 -3.57262921 2.68863698 -6.375 3.75 C-10.8078719 5.64980224 -12.70032917 7.67661885 -15 12 C-15.66 12.99 -16.32 13.98 -17 15 C-16.71637301 9.18564666 -14.18303812 5.80098077 -10 2 C-6.54947128 -0.06626573 -4.01307662 -0.18241257 0 0 Z " fill="#575757" transform="translate(724,142)"/>
<path d="M0 0 C0.99 0.495 0.99 0.495 2 1 C2 3.31 2 5.62 2 8 C2.66 8 3.32 8 4 8 C4.268125 8.928125 4.53625 9.85625 4.8125 10.8125 C5.92367817 13.79513615 6.52454549 15.11865457 9 17 C9.99 17.33 10.98 17.66 12 18 C12 18.66 12 19.32 12 20 C7.71699769 19.25835458 6.01056409 17.38791166 3.328125 14.109375 C0.61660984 9.80285093 0 5.01316204 0 0 Z " fill="#4B4B4B" transform="translate(570,164)"/>
<path d="M0 0 C1.134375 0.66 2.26875 1.32 3.4375 2 C7.4995136 4.07083046 10.61979128 4.30573101 15.1171875 3.9453125 C17 4 17 4 19 6 C17.29865915 7.70134085 15.20230597 7.29256137 12.875 7.375 C6.97595497 7.34423575 4.27825172 5.99303494 0 2 C0 1.34 0 0.68 0 0 Z " fill="#666666" transform="translate(513,163)"/>
<path d="M0 0 C0 1.65 0 3.3 0 5 C5.94 5 11.88 5 18 5 C18 5.33 18 5.66 18 6 C11.73 6 5.46 6 -1 6 C-1 5.01 -1 4.02 -1 3 C-2.98 3.66 -4.96 4.32 -7 5 C-2.25 0 -2.25 0 0 0 Z " fill="#3A3A3A" transform="translate(657,179)"/>
<path d="M0 0 C1.09054687 0.02320313 2.18109375 0.04640625 3.3046875 0.0703125 C4.40039062 0.08835938 5.49609375 0.10640625 6.625 0.125 C7.46804688 0.14820313 8.31109375 0.17140625 9.1796875 0.1953125 C9.1796875 0.5253125 9.1796875 0.8553125 9.1796875 1.1953125 C5.5496875 1.1953125 1.9196875 1.1953125 -1.8203125 1.1953125 C-1.8203125 1.8553125 -1.8203125 2.5153125 -1.8203125 3.1953125 C-2.6040625 3.7521875 -3.3878125 4.3090625 -4.1953125 4.8828125 C-7.442061 7.74304332 -7.93952571 10.03159313 -8.8203125 14.1953125 C-9.1503125 14.1953125 -9.4803125 14.1953125 -9.8203125 14.1953125 C-10.1328125 11.0078125 -10.1328125 11.0078125 -9.8203125 7.1953125 C-7.4453125 4.3828125 -7.4453125 4.3828125 -4.8203125 2.1953125 C-2.8203125 0.1953125 -2.8203125 0.1953125 0 0 Z " fill="#626262" transform="translate(639.8203125,139.8046875)"/>
<path d="M0 0 C1 2 1 2 0.4765625 3.99609375 C0.05503906 5.20458984 0.05503906 5.20458984 -0.375 6.4375 C-2.13160047 11.93188961 -2.68359009 17.26097888 -3 23 C-3.33 23 -3.66 23 -4 23 C-4.738041 5.92255125 -4.738041 5.92255125 0 0 Z " fill="#626262" transform="translate(615,137)"/>
<path d="M0 0 C3.88014936 1.52059907 5.73906562 3.86078531 8.25 7.125 C8.95640625 8.03507813 9.6628125 8.94515625 10.390625 9.8828125 C11.18726563 10.93082031 11.18726563 10.93082031 12 12 C11.67 12.66 11.34 13.32 11 14 C9.62437146 12.71034824 8.29233607 11.37310707 7 10 C7 9.34 7 8.68 7 8 C6.34 8 5.68 8 5 8 C0 2.52380952 0 2.52380952 0 0 Z " fill="#505050" transform="translate(271,147)"/>
<path d="M0 0 C0.99 0 1.98 0 3 0 C3 5.94 3 11.88 3 18 C2.67 18 2.34 18 2 18 C1.67 13.05 1.34 8.1 1 3 C0.01 2.67 -0.98 2.34 -2 2 C-1.34 1.34 -0.68 0.68 0 0 Z " fill="#294449" transform="translate(204,11)"/>
<path d="M0 0 C0.33 1.32 0.66 2.64 1 4 C-1.64 4 -4.28 4 -7 4 C-7 3.01 -7 2.02 -7 1 C-3.535 0.505 -3.535 0.505 0 0 Z " fill="#909090" transform="translate(647,167)"/>
<path d="M0 0 C0 0.66 0 1.32 0 2 C-1.78614318 3.03046722 -3.57910018 4.04913236 -5.375 5.0625 C-6.87160156 5.91521484 -6.87160156 5.91521484 -8.3984375 6.78515625 C-9.25695312 7.18605469 -10.11546875 7.58695312 -11 8 C-11.66 7.67 -12.32 7.34 -13 7 C-3.48854962 0 -3.48854962 0 0 0 Z " fill="#284246" transform="translate(152,88)"/>
<path d="M0 0 C0.66 0.33 1.32 0.66 2 1 C-5.84615385 6.84615385 -5.84615385 6.84615385 -10 8 C-10.99 7.67 -11.98 7.34 -13 7 C-10.88002166 5.80266012 -8.75486324 4.61701287 -6.625 3.4375 C-6.02171875 3.09525391 -5.4184375 2.75300781 -4.796875 2.40039062 C-3.23021759 1.53872905 -1.61709138 0.76281817 0 0 Z " fill="#284044" transform="translate(109,64)"/>
<path d="M0 0 C0 0.99 0 1.98 0 3 C-1.64453125 4.31640625 -1.64453125 4.31640625 -3.8125 5.5625 C-4.52019531 5.97628906 -5.22789062 6.39007813 -5.95703125 6.81640625 C-6.63121094 7.20699219 -7.30539062 7.59757812 -8 8 C-8.99 8.66 -9.98 9.32 -11 10 C-9.54144353 6.31353859 -7.69770955 4.83856029 -4.375 2.75 C-3.55773437 2.22921875 -2.74046875 1.7084375 -1.8984375 1.171875 C-1.27195312 0.78515625 -0.64546875 0.3984375 0 0 Z " fill="#4F4F4F" transform="translate(512,105)"/>
<path d="M0 0 C0.66 0 1.32 0 2 0 C3.05589069 1.63183107 4.0436126 3.30792999 5 5 C6.32458708 7.00580329 7.6559907 9.00715862 9 11 C4.55092795 9.51697598 2.25420608 5.91714499 0 2 C0 1.34 0 0.68 0 0 Z " fill="#4A4A4A" transform="translate(495,168)"/>
<path d="M0 0 C3.95820859 0.56545837 6.6659053 1.80902348 10 4 C6.79937313 5.60031344 4.27728194 4.03173691 1 3 C0.34 3.66 -0.32 4.32 -1 5 C-0.67 3.35 -0.34 1.7 0 0 Z " fill="#243638" transform="translate(12,111)"/>
<path d="M0 0 C-1.6188996 1.03048037 -3.24532489 2.04914678 -4.875 3.0625 C-5.77992188 3.63097656 -6.68484375 4.19945313 -7.6171875 4.78515625 C-8.40351562 5.18605469 -9.18984375 5.58695312 -10 6 C-10.66 5.67 -11.32 5.34 -12 5 C-8.42937391 1.05351854 -5.33493882 -1.67637143 0 0 Z " fill="#283F43" transform="translate(135,99)"/>
<path d="M0 0 C-1 2 -1 2 -3.50390625 2.8515625 C-4.51324219 3.10679687 -5.52257812 3.36203125 -6.5625 3.625 C-7.57441406 3.88539063 -8.58632813 4.14578125 -9.62890625 4.4140625 C-10.41136719 4.60742188 -11.19382812 4.80078125 -12 5 C-8.21249718 1.09480642 -5.54448009 -0.30802667 0 0 Z " fill="#575757" transform="translate(635,125)"/>
<path d="M0 0 C-3.465 2.97 -3.465 2.97 -7 6 C-6.75 3.625 -6.75 3.625 -6 1 C-2.69333333 -1.34666667 -2.69333333 -1.34666667 0 0 Z " fill="#B0B0B0" transform="translate(716,129)"/>
<path d="M0 0 C0 0.66 0 1.32 0 2 C-1.45381897 2.69699552 -2.91322953 3.38233866 -4.375 4.0625 C-5.18710938 4.44535156 -5.99921875 4.82820313 -6.8359375 5.22265625 C-7.55007812 5.47917969 -8.26421875 5.73570313 -9 6 C-9.66 5.67 -10.32 5.34 -11 5 C-9.54462432 4.16151196 -8.08559627 3.32936066 -6.625 2.5 C-5.81289062 2.0359375 -5.00078125 1.571875 -4.1640625 1.09375 C-2 0 -2 0 0 0 Z " fill="#2A474A" transform="translate(80,81)"/>
<path d="M0 0 C1.4589426 0.47730838 2.91713496 0.95691042 4.375 1.4375 C5.18710937 1.70433594 5.99921875 1.97117187 6.8359375 2.24609375 C9 3 9 3 11 4 C11 4.66 11 5.32 11 6 C6.95743617 4.77782954 3.50711041 3.37245704 0 1 C0 0.67 0 0.34 0 0 Z " fill="#29464A" transform="translate(21,70)"/>
<path d="M0 0 C6.52307692 0.61538462 6.52307692 0.61538462 8.9375 2.5625 C9.288125 3.036875 9.63875 3.51125 10 4 C7.69 3.67 5.38 3.34 3 3 C3 2.34 3 1.68 3 1 C2.01 0.67 1.02 0.34 0 0 Z " fill="#8E8E8E" transform="translate(521,150)"/>
<path d="M0 0 C3.36720387 1.39332574 4.9859524 2.9789286 7 6 C6.67 6.66 6.34 7.32 6 8 C5.38125 7.195625 4.7625 6.39125 4.125 5.5625 C2.25835959 2.96125481 2.25835959 2.96125481 0 2 C0 1.34 0 0.68 0 0 Z " fill="#575757" transform="translate(272,120)"/>
</svg>
