<?xml version="1.0" encoding="UTF-8"?>
<svg version="1.1" xmlns="http://www.w3.org/2000/svg" width="64" height="64">
<path d="M0 0 C6.93359375 2.34375 6.93359375 2.34375 9 4 C9.71084551 6.71500648 9.84192513 9.17189686 10 12 C10.65597168 11.63648438 11.31194336 11.27296875 11.98779297 10.8984375 C14.94781144 9.26127075 17.91133965 7.63056406 20.875 6 C21.90753906 5.42765625 22.94007812 4.8553125 24.00390625 4.265625 C24.99003906 3.72421875 25.97617187 3.1828125 26.9921875 2.625 C28.35899658 1.87089844 28.35899658 1.87089844 29.75341797 1.1015625 C32 0 32 0 34 0 C34 16.5 34 33 34 50 C30.7 50 27.4 50 24 50 C24 38.45 24 26.9 24 15 C17.565 18.465 17.565 18.465 11 22 C10.34 22 9.68 22 9 22 C9 31.24 9 40.48 9 50 C6.03 50 3.06 50 0 50 C0 39.11 0 28.22 0 17 C2.31 17.99 4.62 18.98 7 20 C7 18.35 7 16.7 7 15 C3.535 13.02 3.535 13.02 0 11 C0 7.37 0 3.74 0 0 Z " fill="#479BA8" transform="translate(18,9)"/>
<path d="M0 0 C2.5 0.3125 2.5 0.3125 5 1 C6.38308781 3.76617563 6.11210196 6.01018 6.09765625 9.1015625 C6.09282227 10.91914062 6.09282227 10.91914062 6.08789062 12.7734375 C6.07951172 14.04445313 6.07113281 15.31546875 6.0625 16.625 C6.05798828 17.90375 6.05347656 19.1825 6.04882812 20.5 C6.03701203 23.66671292 6.02053815 26.83333356 6 30 C3.69 30 1.38 30 -1 30 C-1.02465746 25.8882744 -1.04283959 21.77657722 -1.05493164 17.66479492 C-1.0599708 16.26504772 -1.06680216 14.8653058 -1.07543945 13.46557617 C-1.0875232 11.45754223 -1.09269807 9.44947043 -1.09765625 7.44140625 C-1.10289307 6.23170166 -1.10812988 5.02199707 -1.11352539 3.77563477 C-1 1 -1 1 0 0 Z " fill="#4AA4B2" transform="translate(20,28)"/>
<path d="M0 0 C1.98 0.99 3.96 1.98 6 3 C6 3.66 6 4.32 6 5 C6.66 5 7.32 5 8 5 C8 7.64 8 10.28 8 13 C2.25 12.125 2.25 12.125 0 11 C0 7.37 0 3.74 0 0 Z " fill="#489DAA" transform="translate(18,9)"/>
<path d="M0 0 C0.99 0.33 1.98 0.66 3 1 C3.33 4.3 3.66 7.6 4 11 C2.68 11 1.36 11 0 11 C0.66 10.67 1.32 10.34 2 10 C2 7.36 2 4.72 2 2 C1.34 2 0.68 2 0 2 C0 1.34 0 0.68 0 0 Z " fill="#3F8690" transform="translate(24,12)"/>
</svg>
